<svg width="193" height="195" viewBox="0 0 193 195" fill="none" xmlns="http://www.w3.org/2000/svg">
<g filter="url(#filter0_d_289_343)">
<ellipse cx="96.2901" cy="96.499" rx="93.2901" ry="93.4911" fill="#FFDD00"/>
<ellipse cx="96.2907" cy="96.4996" rx="86.2048" ry="86.3905" fill="#F8D200"/>
<rect width="4.72355" height="186.982" transform="matrix(0.999992 -0.00408234 0.00399595 0.999992 93.9458 3.01929)" fill="#F8D200"/>
<rect width="4.73372" height="186.58" transform="matrix(-0.0126495 0.99992 -0.999919 -0.0127041 189.998 95.3182)" fill="#F8D200"/>
<rect width="4.72864" height="186.615" transform="matrix(0.706345 -0.707867 0.706345 0.707867 29.0479 32.0643)" fill="#F8D200"/>
<rect width="4.72864" height="186.444" transform="matrix(0.706345 0.707867 -0.706345 0.707867 160.743 28.9564)" fill="#F8D200"/>
<rect width="141.682" height="9.72794" transform="matrix(0.707102 -0.707102 0.710444 0.703745 43 143.216)" fill="#D9B800"/>
<rect width="141.682" height="9.72794" transform="matrix(0.707102 0.707102 -0.703745 0.710444 49.8784 43)" fill="#D9B800"/>
</g>
<defs>
<filter id="filter0_d_289_343" x="0" y="3" width="189.998" height="192" filterUnits="userSpaceOnUse" color-interpolation-filters="sRGB">
<feFlood flood-opacity="0" result="BackgroundImageFix"/>
<feColorMatrix in="SourceAlpha" type="matrix" values="0 0 0 0 0 0 0 0 0 0 0 0 0 0 0 0 0 0 127 0" result="hardAlpha"/>
<feOffset dx="-3" dy="5"/>
<feComposite in2="hardAlpha" operator="out"/>
<feColorMatrix type="matrix" values="0 0 0 0 0.251638 0 0 0 0 0.112674 0 0 0 0 0.491667 0 0 0 0.25 0"/>
<feBlend mode="normal" in2="BackgroundImageFix" result="effect1_dropShadow_289_343"/>
<feBlend mode="normal" in="SourceGraphic" in2="effect1_dropShadow_289_343" result="shape"/>
</filter>
</defs>
</svg>
