<svg width="86" height="89" viewBox="0 0 86 89" fill="none" xmlns="http://www.w3.org/2000/svg">
<path d="M85.75 39.6987L75.4631 37.7992C74.8302 36.5789 73.7551 35.584 72.3607 35.0793C72.1849 35.0158 72.0081 34.9621 71.8307 34.9169L60.3107 12.1187C61.4043 9.92401 61.5434 7.29591 60.4639 4.91502C58.5401 0.672344 53.4754 -1.1779 49.1522 0.782392L6.16222 18.3178C0.924463 20.693 -1.43173 26.7868 0.89959 31.9269C1.89271 34.1167 3.57743 35.7779 5.58809 36.7826L21.2429 75.3818L21.906 77.069C18.8751 79.8758 16.9771 83.8886 16.9771 88.3455H47.7098C47.7098 79.8585 40.8301 72.979 32.3435 72.979C32.3156 72.979 32.288 72.9799 32.2603 72.9801L31.1646 69.9696L31.336 70.0113L31.0361 69.6165L18.4876 35.1403L18.4756 34.9944L53.0211 17.6977L65.1536 38.3472C65.1359 38.3923 65.1172 38.4367 65.1008 38.4825C65.0052 38.7466 64.9313 39.0131 64.8767 39.2803L55.2056 45.1707L58.4573 48.1328L63.1707 58.1896L67.9795 59.0846L66.0233 45.1773L66.761 44.7325C67.2629 45.1589 67.8476 45.505 68.5033 45.7422C70.9953 46.6436 73.7064 45.6905 75.1263 43.5914L78.6494 57.1162L82.8522 54.6128L83.6946 44.7593L84.0913 44.8306L85.7497 39.6989L85.75 39.6987ZM9.03225 20.9514C12.7363 20.3385 16.2358 22.8442 16.8485 26.5489C17.4614 30.2528 14.9555 33.7528 11.2513 34.3656C7.54704 34.9783 4.04769 32.4716 3.43517 28.7679C2.82212 25.0641 5.328 21.5641 9.03225 20.9514ZM47.6848 9.24242C47.2269 6.47457 49.0993 3.85918 51.8673 3.40127C54.0994 3.03194 56.2308 4.17841 57.2132 6.08762C57.2699 6.19784 57.3223 6.31084 57.3712 6.42581C57.3758 6.43682 57.3801 6.44773 57.3846 6.45865C57.431 6.57004 57.4741 6.68322 57.5127 6.79881L57.5163 6.80866C57.5539 6.92157 57.5865 7.03698 57.6163 7.15356C57.6228 7.17861 57.6289 7.20411 57.6348 7.22934C57.6626 7.34565 57.6881 7.4634 57.7078 7.58338L57.708 7.58391C57.7938 8.10284 57.7978 8.6164 57.7292 9.11153C57.4323 11.2566 55.7742 13.053 53.5255 13.4251C53.4439 13.4385 53.3625 13.4498 53.281 13.4591C53.255 13.4621 53.2291 13.4641 53.2029 13.4668C53.1477 13.4723 53.0926 13.4777 53.0376 13.4814C53.0066 13.4835 52.9759 13.4848 52.9451 13.4863C52.895 13.4889 52.8446 13.491 52.7948 13.492C52.7626 13.4926 52.7306 13.4929 52.6987 13.4929C52.6498 13.4929 52.601 13.4923 52.5524 13.4909C52.5205 13.49 52.4885 13.4891 52.4569 13.4876C52.4076 13.4855 52.3584 13.4822 52.3095 13.4784C52.2791 13.4762 52.2488 13.4741 52.2186 13.4712C52.1655 13.4663 52.1128 13.4599 52.0602 13.4533C52.0346 13.45 52.009 13.4475 51.9836 13.4439C51.9072 13.4332 51.8313 13.4209 51.7558 13.4065L51.7495 13.4054C51.6737 13.3911 51.5987 13.3747 51.524 13.3571C51.4983 13.351 51.473 13.3439 51.4475 13.3374C51.3978 13.3246 51.3481 13.3117 51.2989 13.2977C51.2691 13.2892 51.2399 13.2798 51.2102 13.2708C51.1654 13.2569 51.1207 13.2429 51.0766 13.2279C51.0462 13.2177 51.016 13.207 50.9859 13.1961C50.9428 13.1806 50.9 13.1648 50.8573 13.1481C50.8274 13.1364 50.7976 13.1248 50.7681 13.1125C50.7252 13.0948 50.6826 13.0763 50.6402 13.0574C50.6121 13.0449 50.584 13.0327 50.5561 13.0199C50.51 12.9984 50.4646 12.9758 50.4194 12.9529C50.3961 12.9413 50.3728 12.93 50.3497 12.918C50.2828 12.8831 50.2166 12.847 50.1513 12.8091C50.1504 12.8085 50.1493 12.8081 50.1484 12.8075C48.8827 12.0728 47.9427 10.7991 47.6853 9.24215L47.6848 9.24242Z" fill="#03C725"/>
<path fill-rule="evenodd" clip-rule="evenodd" d="M75.4631 37.7992L85.7499 39.6986L85.7496 39.6988L84.0912 44.8306L83.6946 44.7593L82.8522 54.6128L78.6494 57.1162L75.1262 43.5913C73.7063 45.6905 70.9953 46.6436 68.5033 45.7422C67.8476 45.505 67.2629 45.1588 66.761 44.7324L66.0233 45.1773L67.9794 59.0845L63.1707 58.1895L58.4572 48.1327L55.2055 45.1706L64.8766 39.2803C64.9313 39.013 65.0052 38.7466 65.1007 38.4825C65.1118 38.4516 65.124 38.4214 65.1361 38.3911C65.1419 38.3765 65.1478 38.3619 65.1535 38.3472L53.0211 17.6977L52.6647 17.8761L61.0025 13.4878L71.8307 34.9168C72.0081 34.9621 72.1849 35.0158 72.3606 35.0793C73.7551 35.5839 74.8302 36.5788 75.4631 37.7992Z" fill="#F8D200"/>
</svg>
