<svg width="92" height="91" viewBox="0 0 92 91" fill="none" xmlns="http://www.w3.org/2000/svg">
<path fill-rule="evenodd" clip-rule="evenodd" d="M92 45.4965L91.884 45.9619L91.5391 46.4204L90.9744 46.8656L90.2047 47.2914L89.2494 47.6929L88.1317 48.0658L86.8777 48.4071L85.5145 48.715L84.07 48.9886L82.5712 49.2282L81.044 49.4351L79.5117 49.6111L77.9954 49.7589L76.5133 49.8815L75.0807 49.9821L73.7102 50.0643L72.4116 50.1316L71.1926 50.1876L70.0585 50.2356L69.0131 50.2791L68.0589 50.3212L67.1972 50.3651L66.4286 50.4137L65.7534 50.47L65.1716 50.5369L64.6834 50.6175L64.2895 50.7149L63.9912 50.8324L63.7905 50.9738L63.6909 51.1434L63.697 51.346L63.8157 51.5874L64.0558 51.8746L64.4295 52.216L64.9521 52.6218L65.644 53.1051L66.5313 53.6819L67.648 54.373L69.038 55.2048L70.7588 56.2118L72.8861 57.4393L75.5206 58.9475L78.7974 60.8177L82.9006 63.1615L86.676 65.4514L81.4374 63.36L77.2867 61.6965L73.9659 60.3657L71.2881 59.298L69.116 58.4419L67.3472 57.7589L65.9045 57.2198L64.7293 56.8026L63.7763 56.4903L63.0104 56.2701L62.4044 56.1323L61.937 56.0697L61.5913 56.0767L61.3542 56.1498L61.2152 56.2864L61.1661 56.4851L61.2005 56.7455L61.3134 57.0676L61.5006 57.4523L61.759 57.9008L62.0858 58.4146L62.4786 58.9955L62.9349 59.6453L63.4525 60.3654L64.0283 61.1573L64.659 62.0216L65.3403 62.9583L66.0672 63.9661L66.8331 65.0426L67.6302 66.1836L68.4493 67.3832L69.2794 68.6331L70.1081 69.9228L70.9211 71.2393L71.7032 72.5672L72.4379 73.8886L73.1083 75.1838L73.6971 76.4313L74.188 77.6086L74.5657 78.6933L74.817 79.6632L74.9312 80.4982L74.9011 81.1805L74.7231 81.6956L74.3975 82.0334L73.9287 82.1884L73.3247 82.16L72.5972 81.9523L71.7605 81.5744L70.8314 81.0391L69.8277 80.363L68.768 79.5648L67.6707 78.6654L66.5536 77.6859L65.4329 76.6479L64.3233 75.5718L63.2375 74.4771L62.186 73.3815L61.1773 72.3004L60.2181 71.2477L59.3128 70.2346L58.4646 69.2709L57.6751 68.364L56.9447 67.5203L56.2731 66.7443L55.659 66.0397L55.1008 65.4093L54.5964 64.8555L54.1437 64.3801L53.7405 63.985L53.3845 63.6725L53.0737 63.445L52.8064 63.3059L52.581 63.2594L52.3964 63.3111L52.2519 63.4684L52.1473 63.7406L52.0829 64.1397L52.0599 64.6814L52.08 65.3854L52.146 66.2771L52.2621 67.3889L52.4335 68.7629L52.6676 70.4533L52.974 72.5313L53.3654 75.0905L53.8587 78.2559L54.4761 82.1962L55.2478 87.1422L55.1852 88.8157L53.6416 83.7014L52.4191 79.6361L51.438 76.3778L50.6404 73.7503L49.9841 71.6235L49.4376 69.8999L48.9771 68.506L48.5845 67.3855L48.2454 66.4954L47.9488 65.8022L47.6857 65.2802L47.4489 64.9093L47.2322 64.674L47.0306 64.5624L46.8396 64.5654L46.6554 64.6762L46.4744 64.8898L46.2934 65.2027L46.1092 65.6125L45.919 66.1175L45.7198 66.7167L45.5088 67.4093L45.2832 68.1945L45.04 69.0712L44.7767 70.0379L44.4905 71.0921L44.179 72.2301L43.8397 73.4468L43.4709 74.7351L43.0709 76.0856L42.6389 77.4868L42.1744 78.9244L41.6783 80.3813L41.152 81.8376L40.5983 83.2713L40.0212 84.6577L39.4257 85.9709L38.8183 87.1839L38.2063 88.2701L37.598 89.2036L37.0025 89.9612L36.429 90.5227L35.8868 90.8724L35.3847 91L34.9306 90.9007L34.5311 90.576L34.1915 90.0332L33.9151 89.2854L33.7038 88.3506L33.5571 87.2508L33.4731 86.0108L33.4483 84.6574L33.4778 83.2179L33.5558 81.7194L33.6756 80.1876L33.8302 78.6463L34.0125 77.117L34.2152 75.6181L34.4316 74.1655L34.6553 72.7721L34.8803 71.448L35.1013 70.201L35.3133 69.0368L35.5121 67.959L35.6937 66.9699L35.8548 66.0707L35.9921 65.2615L36.1027 64.5422L36.1836 63.9122L36.232 63.3709L36.2449 62.9181L36.2187 62.5539L36.1498 62.2791L36.0338 62.0955L35.8652 62.006L35.6377 62.0148L35.3435 62.1283L34.9728 62.3547L34.5137 62.7054L33.9511 63.1951L33.2658 63.8428L32.4337 64.6737L31.4236 65.7199L30.1952 67.0239L28.6958 68.6409L26.8557 70.6441L24.5815 73.1313L21.7468 76.2346L18.1769 80.1348L18.5616 78.9538L21.4221 74.7957L23.7027 71.4856L25.5319 68.8261L27.004 66.6732L28.189 64.9204L29.1395 63.488L29.8952 62.3156L30.4866 61.3568L30.937 60.5758L31.2642 59.9449L31.4818 59.4422L31.6002 59.0505L31.6271 58.7561L31.5682 58.5484L31.4274 58.4185L31.2073 58.3596L30.9093 58.3662L30.5339 58.4336L30.0811 58.5581L29.5499 58.7365L28.9396 58.9658L28.2487 59.2435L27.4763 59.5668L26.6215 59.9327L25.6839 60.3381L24.6641 60.7792L23.5637 61.2515L22.3855 61.7497L21.1344 62.2678L19.8172 62.7985L18.4428 63.3336L17.023 63.8635L15.5721 64.3781L14.1071 64.8659L12.6477 65.3152L11.2159 65.7137L9.83575 66.0493L8.53222 66.3104L7.33089 66.4863L6.25674 66.568L5.33313 66.5485L4.58075 66.4232L4.01662 66.1902L3.65319 65.8506L3.49776 65.4084L3.55204 64.8704L3.81216 64.2458L4.26885 63.5459L4.908 62.7835L5.71145 61.9723L6.65789 61.1262L7.72387 60.2591L8.88485 59.384L10.1162 58.5128L11.3939 57.656L12.6954 56.8227L14.0001 56.02L15.2896 55.2536L16.548 54.5277L17.7618 53.8448L18.9199 53.2065L20.0134 52.613L21.0353 52.064L21.9805 51.5581L22.8451 51.0937L23.6262 50.6685L24.3218 50.2804L24.9304 49.9266L25.4506 49.6047L25.8809 49.312L26.2197 49.0459L26.4644 48.8039L26.6119 48.5835L26.6578 48.3824L26.596 48.1982L26.4187 48.0286L26.1155 47.8714L25.673 47.7241L25.074 47.5843L24.2963 47.4492L23.3113 47.3158L22.0824 47.1804L20.562 47.0386L18.6883 46.8848L16.38 46.7117L13.5294 46.5097L9.99223 46.2655L5.57248 45.9607L0 45.5692L3.93807 45.1461L8.69134 44.817L12.4854 44.5558L15.5369 44.342L18.0047 44.1609L20.007 44.0018L21.6324 43.8569L22.9484 43.72L24.0066 43.5864L24.8469 43.4522L25.5001 43.3142L25.9904 43.1696L26.3363 43.0157L26.5525 42.8504L26.6501 42.6711L26.6378 42.4756L26.5222 42.2616L26.308 42.0268L25.9989 41.7686L25.5975 41.4846L25.1057 41.1723L24.5252 40.829L23.8571 40.452L23.1031 40.039L22.2648 39.5873L21.3449 39.0948L20.3469 38.5597L19.2756 37.9805L18.1372 37.3564L16.94 36.6877L15.6945 35.9752L14.4133 35.2213L13.1116 34.4297L11.8069 33.6054L10.5192 32.7552L9.2706 31.8875L8.08455 31.0124L6.98562 30.1414L5.99849 29.2871L5.14706 28.4633L4.45343 27.6838L3.93688 26.9626L3.6129 26.3127L3.49236 25.746L3.58091 25.2724L3.87861 24.8996L4.37993 24.6324L5.074 24.4728L5.94515 24.42L6.97378 24.4701L8.13725 24.6169L9.41099 24.8519L10.7695 25.165L12.1875 25.5448L13.6406 25.9792L15.1061 26.4561L16.5635 26.9634L17.9949 27.4896L19.3851 28.0241L20.7216 28.5571L21.9946 29.0801L23.1966 29.5854L24.3222 30.0666L25.368 30.5181L26.3318 30.9353L27.213 31.3142L28.0116 31.6514L28.7283 31.9439L29.3642 32.1889L29.9204 32.3839L30.3981 32.5258L30.7981 32.6118L31.1208 32.6382L31.3658 32.6007L31.5321 32.4941L31.6174 32.312L31.6184 32.0463L31.5298 31.687L31.3448 31.2213L31.0539 30.6333L30.6445 29.9029L30.1002 29.0042L29.3997 27.9042L28.5151 26.5604L27.4098 24.9173L26.0358 22.902L24.3293 20.4174L22.2045 17.333L19.5453 13.4706L16.8483 9.41017L20.6994 13.6129L23.7466 16.9476L26.1837 19.6147L28.1505 21.7601L29.7499 23.4912L31.0582 24.8881L32.133 26.0113L33.0181 26.9068L33.7472 27.6099L34.3466 28.1476L34.8368 28.5407L35.2342 28.8054L35.5516 28.9538L35.7994 28.9952L35.986 28.9364L36.1182 28.7824L36.2016 28.5364L36.2409 28.2006L36.2401 27.7759L36.2027 27.2629L36.1318 26.6612L36.0304 25.9704L35.9013 25.1899L35.7474 24.3193L35.572 23.3588L35.3782 22.3091L35.17 21.172L34.9514 19.9509L34.7271 18.6507L34.5024 17.2783L34.283 15.8433L34.0752 14.3576L33.8856 12.8361L33.7214 11.2964L33.5898 9.75914L33.4977 8.24731L33.4521 6.78615L33.459 5.40236L33.5236 4.12329L33.6501 2.976L33.8407 1.98608L34.0965 1.17657L34.4162 0.566831L34.7971 0.171551L35.2345 0L35.7222 0.0555234L36.2525 0.335378L36.817 0.830898L37.4065 1.52799L38.0117 2.40789L38.6234 3.44812L39.2332 4.62363L39.8332 5.90786L40.4168 7.27383L40.9784 8.69516L41.5138 10.1468L42.0198 11.6058L42.4944 13.0515L42.9368 14.466L43.3469 15.8341L43.7256 17.1433L44.074 18.3836L44.3941 19.5473L44.6881 20.6287L44.9585 21.6236L45.2077 22.5292L45.4387 23.3437L45.654 24.0658L45.8567 24.6948L46.0495 25.2299L46.2352 25.6702L46.4169 26.0142L46.5975 26.2598L46.7804 26.4038L46.9688 26.4418L47.1665 26.3676L47.3779 26.1728L47.6078 25.8466L47.8618 25.3746L48.1468 24.7385L48.4712 23.9143L48.8454 22.8714L49.2825 21.57L49.7994 19.9584L50.4177 17.9693L51.1662 15.5136L52.0835 12.4729L53.2217 8.68729L54.6526 3.93848L55.5323 2.01528L54.7035 7.34375L54.0406 11.5757L53.5105 14.967L53.0887 17.704L52.7568 19.9238L52.5009 21.7291L52.3104 23.1972L52.1774 24.3875L52.0959 25.3454L52.0615 26.1061L52.071 26.6971L52.1224 27.1398L52.2142 27.4509L52.346 27.6437L52.5178 27.7282L52.7301 27.7123L52.9839 27.6021L53.2807 27.4024L53.6221 27.1167L54.01 26.7476L54.4467 26.2976L54.9344 25.7685L55.4752 25.1623L56.0713 24.4811L56.7245 23.7275L57.436 22.9049L58.2067 22.0175L59.0363 21.0712L59.9237 20.0729L60.8662 19.0316L61.8597 17.9582L62.8984 16.8656L63.9743 15.7688L65.0776 14.6848L66.1963 13.6324L67.3162 12.632L68.4217 11.7047L69.4953 10.872L70.5189 10.1549L71.4738 9.57282L72.3418 9.14318L73.1057 8.8801L73.7505 8.79386L74.2634 8.89025L74.6353 9.17022L74.8606 9.62978L74.9375 10.2602L74.8686 11.0483L74.66 11.9774L74.3213 13.0278L73.8649 14.1781L73.3055 15.4057L72.6593 16.688L71.9432 18.0033L71.1744 19.3312L70.3694 20.6531L69.5442 21.9529L68.7131 23.2167L67.8892 24.4333L67.084 25.5938L66.3073 26.6914L65.5672 27.7214L64.8707 28.6809L64.2234 29.5683L63.6297 30.3832L63.0933 31.1261L62.6171 31.7981L62.2039 32.4007L61.8558 32.9358L61.5754 33.4049L61.3651 33.8098L61.2282 34.1517L61.1683 34.4317L61.1901 34.65L61.2997 34.8065L61.5046 34.9001L61.8144 34.9285L62.2414 34.8885L62.8012 34.7754L63.5134 34.5824L64.4035 34.3007L65.5036 33.9185L66.8554 33.4203L68.5129 32.786L70.5468 31.9887L73.0505 30.9933L76.149 29.7528L80.0112 28.2042L84.8698 26.2614L84.4199 26.9619L80.0042 29.4865L76.487 31.4938L73.6646 33.1072L71.3881 34.4167L69.547 35.4884L68.0586 36.3718L66.8603 37.1045L65.904 37.7153L65.153 38.2264L64.5789 38.6554L64.1597 39.016L63.8785 39.3195L63.7222 39.5747L63.681 39.789L63.7476 39.9685L63.9165 40.1184L64.1841 40.2431L64.5477 40.3465L65.0059 40.4321L65.5579 40.503L66.2034 40.5624L66.9423 40.6131L67.7744 40.6582L68.6992 40.7005L69.7157 40.7432L70.8219 40.7895L72.0144 40.8426L73.2883 40.9059L74.6369 40.9829L76.0509 41.0773L77.5188 41.1925L79.026 41.3319L80.5554 41.4987L82.0867 41.6955L83.5972 41.9245L85.0619 42.1872L86.4539 42.4842L87.7458 42.815L88.9098 43.1781L89.9195 43.5709L90.7506 43.9895L91.3825 44.4291L91.7987 44.8841L91.9882 45.348L92 45.4965Z" fill="url(#paint0_linear_95_276)"/>
<defs>
<linearGradient id="paint0_linear_95_276" x1="84.7129" y1="62.335" x2="74.1804" y2="0.997479" gradientUnits="userSpaceOnUse">
<stop stop-color="#1AD980"/>
<stop offset="1" stop-color="#F8D200"/>
</linearGradient>
</defs>
</svg>
