<svg width="86" height="86" viewBox="0 0 86 86" fill="none" xmlns="http://www.w3.org/2000/svg">
<path d="M61.3853 43.4098C61.3853 53.79 52.9704 62.205 42.5902 62.205C32.21 62.205 23.7951 53.79 23.7951 43.4098C23.7951 33.0296 32.21 24.6147 42.5902 24.6147" stroke="#03C725" stroke-width="10" stroke-linecap="round"/>
<path d="M50.1082 6.5716C47.6792 6.07849 45.1648 5.81964 42.5902 5.81964C21.8297 5.81964 5 22.6493 5 43.4098C5 64.1702 21.8297 81.0001 42.5902 81.0001C63.3505 81.0001 80.1804 64.1702 80.1804 43.4098C80.1804 40.8353 79.9214 38.3209 79.4286 35.8918" stroke="#F8D200" stroke-width="10" stroke-linecap="round"/>
<path d="M40.5968 41.4164C39.4958 42.5174 39.4958 44.3022 40.5968 45.4032C41.6978 46.5043 43.4826 46.5043 44.5836 45.4032L40.5968 41.4164ZM71.5005 14.4997L68.7725 15.2114C69.03 16.1988 69.8014 16.9699 70.7885 17.2276L71.5005 14.4997ZM57.8999 24.1131L40.5968 41.4164L44.5836 45.4032L61.8871 28.1001L57.8999 24.1131ZM74.2284 13.7879L72.2872 6.3486L66.8314 7.77214L68.7725 15.2114L74.2284 13.7879ZM64.2711 4.54054L59.9505 8.86109L63.9377 12.8481L68.2583 8.52759L64.2711 4.54054ZM55.9437 22.1362L57.1654 26.8183L62.6213 25.3948L61.3996 20.7126L55.9437 22.1362ZM70.7885 17.2276L78.228 19.1686L79.6515 13.7127L72.212 11.7717L70.7885 17.2276ZM77.4724 17.7418L73.1518 22.0624L77.139 26.0495L81.4596 21.7289L77.4724 17.7418ZM65.2875 24.6003L60.6053 23.3787L59.1818 28.8345L63.864 30.0562L65.2875 24.6003ZM73.1518 22.0624C70.8174 24.3967 67.7234 25.2359 65.2875 24.6003L63.864 30.0562C68.5218 31.2715 73.6115 29.577 77.139 26.0495L73.1518 22.0624ZM78.228 19.1686C78.0355 19.1184 77.816 18.9957 77.6401 18.7929C77.4728 18.5999 77.3976 18.3957 77.3724 18.2376C77.3224 17.9248 77.4487 17.7655 77.4724 17.7418L81.4596 21.7289C82.6335 20.5548 83.1929 18.9297 82.9403 17.3481C82.679 15.7129 81.5288 14.2025 79.6515 13.7127L78.228 19.1686ZM59.9505 8.86109C56.423 12.3886 54.7285 17.4783 55.9437 22.1362L61.3996 20.7126C60.7643 18.2767 61.6033 15.1825 63.9377 12.8481L59.9505 8.86109ZM72.2872 6.3486C71.7974 4.47138 70.287 3.32093 68.6519 3.05972C67.0704 2.80707 65.445 3.36649 64.2711 4.54054L68.2583 8.52759C68.2346 8.55119 68.0752 8.67761 67.7625 8.62765C67.6042 8.60239 67.4001 8.5271 67.2069 8.35982C67.0043 8.18413 66.8817 7.96471 66.8314 7.77214L72.2872 6.3486Z" fill="white"/>
</svg>
