<svg width="69" height="60" viewBox="0 0 69 60" fill="none" xmlns="http://www.w3.org/2000/svg">
<path fill-rule="evenodd" clip-rule="evenodd" d="M34.4992 15.5121V15.5121L34.6448 15.503L34.791 15.4758L34.9384 15.4305L35.0875 15.3669L35.2389 15.2851L35.3933 15.1848L35.5511 15.0661L35.7131 14.9287L35.8797 14.7725L36.0517 14.5974L36.2297 14.4033L36.4144 14.1899L36.6063 13.9572L36.8061 13.7051L37.0146 13.4334L37.2323 13.1422L37.4599 12.8314L37.6982 12.5011L37.9477 12.1514L38.2091 11.7827L38.483 11.3952L38.77 10.9893L39.0706 10.5657L39.3854 10.1251L39.7147 9.66844L40.0589 9.19676L40.4182 8.7114L40.7929 8.21387L41.1828 7.70592L41.5879 7.18957L42.0079 6.66707L42.4424 6.14092L42.8906 5.61391L43.3518 5.08907L43.8249 4.56967L44.3085 4.05922L44.8011 3.56141L45.301 3.08013L45.8061 2.61939L46.3143 2.18326L46.8229 1.77588L47.3296 1.40132L47.8314 1.06358L48.3253 0.766466L48.8086 0.513567L49.2779 0.308145L49.7304 0.153097L50.1631 0.0508592L50.5729 0.00338143L50.9574 0.0120637L51.3138 0.0777146L51.6401 0.200533L51.9342 0.380117L52.1946 0.615427L52.42 0.904848L52.6097 1.24619L52.7631 1.63676L52.8804 2.07339L52.9617 2.55253L53.0079 3.07029L53.0201 3.62253L52.9996 4.20496L52.9482 4.81317L52.8677 5.44272L52.7603 6.08926L52.6283 6.74849L52.474 7.41631L52.2999 8.0888L52.1085 8.76231L51.9023 9.43345L51.6837 10.0991L51.4551 10.7565L51.2188 11.4032L50.977 12.037L50.7316 12.656L50.4847 13.2587L50.238 13.8438L49.9931 14.4102L49.7516 14.9571L49.5147 15.484L49.2838 15.9905L49.06 16.4763L48.8441 16.9415L48.637 17.3861L48.4396 17.8103L48.2524 18.2144L48.0761 18.5988L47.9111 18.964L47.7578 19.3105L47.6168 19.6387L47.4882 19.9494L47.3723 20.243L47.2695 20.5203L47.1799 20.7818L47.1038 21.0281L47.0413 21.2599L46.9927 21.4779L46.958 21.6825L46.9377 21.8744L46.9317 22.0543L46.9403 22.2226L46.9637 22.3798L47.0022 22.5267L47.056 22.6636L47.1253 22.7911L47.2105 22.9097L47.3118 23.0198L47.4296 23.122L47.5642 23.2167L47.7159 23.3044L47.8853 23.3855L48.0726 23.4606L48.2783 23.5299L48.5028 23.5941L48.7466 23.6536L49.0101 23.7088L49.2937 23.7603L49.5979 23.8085L49.9232 23.854L50.2698 23.8973L50.6381 23.939L51.0286 23.9796L51.4413 24.0198L51.8766 24.0602L52.3344 24.1015L52.8149 24.1443L53.3177 24.1896L53.8428 24.2379L54.3895 24.2901L54.9573 24.347L55.5453 24.4096L56.1525 24.4785L56.7775 24.5549L57.4188 24.6394L58.0744 24.7331L58.7422 24.8369L59.4196 24.9515L60.1038 25.0777L60.7917 25.2164L61.4798 25.3683L62.1643 25.5339L62.8412 25.7137L63.506 25.9081L64.1543 26.1173L64.7814 26.3415L65.3824 26.5804L65.9524 26.8339L66.4866 27.1015L66.9802 27.3825L67.4288 27.676L67.8279 27.981L68.1738 28.2963L68.4628 28.6205L68.692 28.952L68.859 29.2891L68.962 29.6301L69 29.9731L68.9725 30.3163L68.8797 30.6578L68.7228 30.9956L68.5034 31.3281L68.2237 31.6536L67.8867 31.9704L67.4958 32.2771L67.0548 32.5726L66.568 32.8556L66.04 33.1254L65.4753 33.3811L64.879 33.6224L64.2557 33.849L63.6105 34.0606L62.948 34.2573L62.2727 34.4394L61.5892 34.6073L60.9014 34.7612L60.2132 34.902L59.5282 35.0302L58.8495 35.1466L58.18 35.252L57.5223 35.3472L56.8786 35.4332L56.2509 35.5108L55.6408 35.5809L55.0496 35.6444L54.4785 35.7022L53.9284 35.7551L53.3999 35.804L52.8935 35.8496L52.4094 35.8928L51.948 35.9343L51.5091 35.9748L51.0928 36.015L50.6988 36.0555L50.327 36.0969L49.9769 36.1399L49.6483 36.185L49.3408 36.2328L49.0539 36.2837L48.7872 36.3383L48.5403 36.3971L48.3128 36.4605L48.1041 36.529L47.9139 36.6031L47.7417 36.6832L47.5872 36.7698L47.4499 36.8634L47.3294 36.9644L47.2255 37.0732L47.1378 37.1904L47.066 37.3165L47.0097 37.4518L46.9688 37.5971L46.943 37.7527L46.932 37.9191L46.9357 38.0971L46.9538 38.2871L46.9862 38.4896L47.0326 38.7054L47.0929 38.935L47.1669 39.179L47.2543 39.438L47.3551 39.7127L47.4688 40.0037L47.5954 40.3116L47.7346 40.637L47.8859 40.9806L48.049 41.3427L48.2236 41.724L48.4091 42.125L48.6049 42.546L48.8105 42.9873L49.025 43.4492L49.2477 43.9317L49.4775 44.4349L49.7135 44.9586L49.9544 45.5024L50.1988 46.0657L50.4453 46.6479L50.6923 47.2478L50.9381 47.8643L51.1806 48.4959L51.418 49.1407L51.6479 49.7965L51.8683 50.4611L52.0766 51.1315L52.2705 51.8049L52.4475 52.4778L52.6051 53.1466L52.7409 53.8075L52.8523 54.4563L52.9373 55.0889L52.9935 55.7008L53.019 56.2876L53.0121 56.8449L52.9714 57.3685L52.8957 57.854L52.7842 58.2977L52.6365 58.6958L52.4526 59.0452L52.2328 59.343L51.9779 59.5871L51.6891 59.7756L51.3678 59.9075L51.0161 59.9823L50.6359 60L50.2299 59.9614L49.8008 59.8678L49.3512 59.721L48.8843 59.5234L48.4031 59.2778L47.9106 58.9875L47.4099 58.656L46.9039 58.2871L46.3953 57.8846L45.8869 57.4528L45.3812 56.9957L44.8803 56.5174L44.3864 56.022L43.9012 55.5133L43.4264 54.9951L42.9633 54.4709L42.5129 53.944L42.0762 53.4175L41.6538 52.8943L41.2463 52.3768L40.8539 51.8674L40.4769 51.368L40.1151 50.8806L39.7685 50.4067L39.4369 49.9475L39.1198 49.5043L38.817 49.0779L38.5278 48.6692L38.2519 48.2787L37.9885 47.907L37.7372 47.5543L37.4972 47.2209L37.2679 46.907L37.0486 46.6127L36.8387 46.3379L36.6376 46.0826L36.4444 45.8468L36.2587 45.6304L36.0797 45.4332L35.9067 45.2551L35.7393 45.0959L35.5766 44.9555L35.4182 44.8338L35.2633 44.7306L35.1115 44.6458L34.962 44.5794L34.8144 44.5311L34.6681 44.5011L34.5223 44.4891L34.3767 44.4953L34.2307 44.5196L34.0835 44.562L33.9347 44.6227L33.7837 44.7016L33.6299 44.7989L33.4726 44.9147L33.3114 45.0491L33.1455 45.2023L32.9744 45.3744L32.7974 45.5655L32.6138 45.7758L32.4231 46.0054L32.2246 46.2544L32.0176 46.523L31.8014 46.8111L31.5754 47.1188L31.3388 47.446L31.0912 47.7926L30.8317 48.1583L30.5598 48.5428L30.2749 48.9458L29.9765 49.3666L29.664 49.8046L29.3371 50.2588L28.9953 50.7281L28.6384 51.2114L28.2662 51.7071L27.8787 52.2135L27.476 52.7287L27.0583 53.2504L26.6261 53.7761L26.18 54.3032L25.7208 54.8286L25.2495 55.3491L24.7675 55.8612L24.2762 56.3613L23.7773 56.8455L23.2729 57.3097L22.7651 57.7501L22.2563 58.1623L21.7492 58.5424L21.2465 58.8862L20.751 59.1901L20.2659 59.4502L19.7941 59.6634L19.3387 59.8267L18.9027 59.9375L18.489 59.9938L18.1004 59.9941L17.7393 59.9375L17.4081 59.8238L17.1088 59.6532L16.8429 59.4267L16.6119 59.1458L16.4165 58.8125L16.2572 58.4296L16.1342 58.0001L16.0472 57.5274L15.9954 57.0156L15.9779 56.4685L15.9933 55.8906L16.04 55.2862L16.116 54.6598L16.2192 54.0156L16.3475 53.3582L16.4984 52.6914L16.6695 52.0194L16.8583 51.3459L17.0623 50.6741L17.2791 50.0074L17.5062 49.3485L17.7415 48.6999L17.9826 48.064L18.2275 47.4425L18.4743 46.8371L18.7212 46.2491L18.9664 45.6797L19.2086 45.1296L19.4463 44.5995L19.6782 44.0898L19.9032 43.6007L20.1205 43.1322L20.329 42.6843L20.528 42.2569L20.7168 41.8496L20.8949 41.4621L21.0618 41.0939L21.2169 40.7445L21.3599 40.4133L21.4905 40.0999L21.6084 39.8036L21.7134 39.5238L21.8051 39.2598L21.8834 39.0111L21.948 38.777L21.9989 38.5569L22.0357 38.3502L22.0584 38.1563L22.0667 37.9746L22.0604 37.8045L22.0394 37.6455L22.0033 37.497L21.952 37.3585L21.8851 37.2296L21.8025 37.1096L21.7038 36.9982L21.5887 36.8947L21.4568 36.7989L21.3077 36.7101L21.1412 36.6279L20.9568 36.552L20.7541 36.4817L20.5326 36.4168L20.2919 36.3566L20.0316 36.3007L19.7512 36.2487L19.4502 36.1999L19.1284 36.1541L18.7852 36.1104L18.4203 36.0686L18.0334 36.0278L17.6242 35.9876L17.1926 35.9473L16.7383 35.9062L16.2615 35.8636L15.7622 35.8188L15.2407 35.771L14.6974 35.7195L14.1329 35.6634L13.548 35.6018L12.9438 35.5339L12.3215 35.4588L11.6827 35.3756L11.0292 35.2834L10.3632 35.1813L9.68719 35.0685L9.00383 34.9442L8.31628 34.8075L7.62797 34.6578L6.94263 34.4944L6.26429 34.3169L5.59723 34.1249L4.94597 33.918L4.31521 33.6962L3.70976 33.4596L3.13448 33.2084L2.59425 32.943L2.09382 32.6641L1.63779 32.3725L1.2305 32.0693L0.875935 31.7555L0.577659 31.4327L0.338742 31.1022L0.161685 30.7659L0.0483656 30.4254L-1.30773e-06 30.0825L0.0171046 29.7392L0.099499 29.3974L0.246297 29.0588L0.455932 28.7254L0.726196 28.3987L1.05428 28.0804L1.43686 27.772L1.87012 27.4747L2.34989 27.1896L2.87169 26.9177L3.43083 26.6596L4.02247 26.416L4.64175 26.1871L5.28381 25.9731L5.94389 25.774L6.61739 25.5896L7.29991 25.4195L7.98728 25.2634L8.67564 25.1205L9.36141 24.9904L10.0413 24.8722L10.7124 24.7651L11.3722 24.6683L12.0182 24.5809L12.6486 24.502L13.2616 24.4308L13.8559 24.3663L14.4302 24.3077L14.9838 24.254L15.5158 24.2046L16.0257 24.1585L16.5133 24.1149L16.9784 24.0732L17.4208 24.0326L17.8407 23.9924L18.2382 23.952L18.6136 23.9107L18.9671 23.868L19.2991 23.8233L19.61 23.776L19.9001 23.7256L20.17 23.6716L20.42 23.6136L20.6506 23.5509L20.8622 23.4832L21.0554 23.4101L21.2304 23.3309L21.3877 23.2454L21.5277 23.153L21.6508 23.0532L21.7574 22.9457L21.8476 22.8298L21.922 22.7052L21.9807 22.5713L22.024 22.4277L22.0522 22.2738L22.0655 22.1091L22.0642 21.933L22.0483 21.745L22.0182 21.5445L21.974 21.3308L21.916 21.1035L21.8442 20.8618L21.7588 20.6052L21.6602 20.3331L21.5485 20.0447L21.4239 19.7396L21.2868 19.417L21.1374 19.0764L20.9761 18.7172L20.8033 18.339L20.6195 17.9412L20.4253 17.5234L20.2212 17.0853L20.0081 16.6267L19.7866 16.1475L19.5578 15.6476L19.3228 15.1271L19.0826 14.5865L18.8387 14.0263L18.5924 13.4471L18.3453 12.8499L18.0992 12.2359L17.8561 11.6066L17.6177 10.9638L17.3864 10.3096L17.1644 9.64622L16.954 8.9765L16.7576 8.30339L16.5778 7.63019L16.4169 6.96047L16.2775 6.29807L16.162 5.64703L16.0727 5.0116L16.0118 4.39611L15.9813 3.80499L15.9829 3.24266L16.0181 2.71345L16.0882 2.22158L16.1939 1.77101L16.3358 1.3654L16.514 1.00806L16.7281 0.701839L16.9775 0.449088L17.261 0.251617L17.5772 0.110641L17.9243 0.0267708L18.3001 3.01478e-06L18.7021 0.0297195L19.1278 0.114696L19.5743 0.253162L20.0386 0.442836L20.5178 0.680949L21.0086 0.964355L21.5083 1.28956L22.0137 1.65282L22.522 2.05019L23.0306 2.4776L23.5369 2.93095L24.0387 3.40613L24.5338 3.8991L25.0205 4.40593L25.4971 4.92287L25.9622 5.44635L26.4146 5.97301L26.8536 6.49974L27.2782 7.02369L27.6881 7.54226L28.0829 8.05311L28.4624 8.55416L28.8266 9.04358L29.1756 9.51977L29.5096 9.98135L29.829 10.4272L30.1341 10.8563L30.4254 11.2679L30.7034 11.6613L30.9687 12.0361L31.2219 12.3918L31.4637 12.7283L31.6946 13.0453L31.9155 13.3428L32.1268 13.6207L32.3293 13.879L32.5237 14.1179L32.7105 14.3374L32.8906 14.5377L33.0644 14.7188L33.2327 14.881L33.3961 15.0244L33.5552 15.149L33.7106 15.2552L33.8629 15.3429L34.0126 15.4122L34.1605 15.4634L34.307 15.4963L34.4528 15.5112L34.4992 15.5121Z" fill="url(#paint0_linear_95_274)"/>
<defs>
<linearGradient id="paint0_linear_95_274" x1="-7.00951e-07" y1="43.3696" x2="49.7688" y2="72.0874" gradientUnits="userSpaceOnUse">
<stop stop-color="#D9E605"/>
<stop offset="1" stop-color="#5EC24A"/>
</linearGradient>
</defs>
</svg>
