<svg width="34" height="34" viewBox="0 0 34 34" fill="none" xmlns="http://www.w3.org/2000/svg">
<path d="M30.3439 14.3571H29.2569V14.3011H17.1119V19.6989H24.7383C23.6257 22.8411 20.636 25.0967 17.1119 25.0967C12.6405 25.0967 9.01522 21.4714 9.01522 17C9.01522 12.5286 12.6405 8.90331 17.1119 8.90331C19.1759 8.90331 21.0536 9.68194 22.4834 10.9538L26.3003 7.13688C23.8902 4.89073 20.6663 3.50552 17.1119 3.50552C9.65958 3.50552 3.61743 9.54767 3.61743 17C3.61743 24.4523 9.65958 30.4945 17.1119 30.4945C24.5642 30.4945 30.6064 24.4523 30.6064 17C30.6064 16.0952 30.5132 15.212 30.3439 14.3571Z" fill="#FFC107"/>
<path d="M5.17334 10.719L9.60695 13.9705C10.8066 11.0003 13.712 8.90331 17.1119 8.90331C19.1759 8.90331 21.0536 9.68194 22.4834 10.9538L26.3003 7.13688C23.8902 4.89073 20.6663 3.50552 17.1119 3.50552C11.9287 3.50552 7.43366 6.4318 5.17334 10.719Z" fill="#FF3D00"/>
<path d="M17.1118 30.4945C20.5975 30.4945 23.7646 29.1605 26.1592 26.9913L21.9827 23.4571C20.6278 24.4833 18.9437 25.0967 17.1118 25.0967C13.6019 25.0967 10.6217 22.8586 9.49893 19.7353L5.09839 23.1258C7.33172 27.496 11.8672 30.4945 17.1118 30.4945Z" fill="#4CAF50"/>
<path d="M30.3438 14.3571H29.2568V14.3011H17.1118V19.6989H24.7382C24.2038 21.2083 23.2329 22.5098 21.9806 23.4578C21.9813 23.4571 21.982 23.4571 21.9826 23.4564L26.1592 26.9906C25.8637 27.2592 30.6063 23.7472 30.6063 17C30.6063 16.0952 30.5132 15.212 30.3438 14.3571Z" fill="#1976D2"/>
</svg>
