<svg width="84" height="173" viewBox="0 0 84 173" fill="none" xmlns="http://www.w3.org/2000/svg">
<path fill-rule="evenodd" clip-rule="evenodd" d="M47.4353 173C67.469 173 83.7095 156.76 83.7095 136.726C83.7095 116.692 67.469 100.452 47.4353 100.452C27.4016 100.452 11.1611 116.692 11.1611 136.726C11.1611 156.76 27.4016 173 47.4353 173ZM47.0866 149.98C54.5992 149.98 60.6894 143.89 60.6894 136.377C60.6894 128.864 54.5992 122.774 47.0866 122.774C39.5739 122.774 33.4837 128.864 33.4837 136.377C33.4837 143.89 39.5739 149.98 47.0866 149.98Z" fill="black"/>
<rect x="34.6001" width="26.161" height="108.863" fill="black"/>
<rect x="37.9756" y="37.9756" width="21.9415" height="37.9756" transform="rotate(90 37.9756 37.9756)" fill="black"/>
<rect x="37.9756" width="21.9415" height="37.9756" transform="rotate(90 37.9756 0)" fill="black"/>
</svg>
