<svg width="288" height="288" viewBox="0 0 288 288" fill="none" xmlns="http://www.w3.org/2000/svg">
<path d="M219.938 109.406C220.384 109.534 220.384 109.534 220.84 109.663C226.042 111.273 230.586 114.997 233.156 119.813C234.851 123.497 235.836 127 235.793 131.08C235.796 131.388 235.8 131.695 235.803 132.012C235.796 133.829 235.555 135.358 235.027 137.091C234.745 138.201 234.799 139.244 234.861 140.379C234.908 142.294 234.847 143.784 233.719 145.406C233.592 145.598 233.465 145.789 233.334 145.986C232.127 147.572 230.65 148.302 228.852 149.109C228.02 149.559 228.02 149.559 227.85 150.444C227.831 150.874 227.831 150.874 227.813 151.313C227.784 151.655 227.784 151.655 227.755 152.004C227.722 153.708 228.016 155.078 228.656 156.656C229.041 156.693 229.041 156.693 229.433 156.73C237.192 157.571 244.619 159.892 250.594 165.094C250.766 165.24 250.939 165.385 251.117 165.535C259.136 172.856 259.583 185.766 260.719 195.75C260.749 196.006 260.778 196.261 260.809 196.525C260.944 197.696 261.065 198.861 261.106 200.039C261.119 200.313 261.133 200.587 261.147 200.87C261 201.656 261 201.656 260.295 202.252C259.328 203.369 259.421 204.141 259.476 205.569C259.48 205.814 259.483 206.059 259.487 206.311C259.495 206.837 259.506 207.362 259.52 207.887C259.555 209.264 259.566 210.641 259.578 212.017C259.583 212.426 259.583 212.426 259.587 212.843C259.642 219.354 258.87 225.903 257.827 232.323C257.22 236.097 257.184 239.55 257.884 243.319C258.892 249.021 257.721 253.725 254.661 258.595C254.265 259.14 253.849 259.649 253.406 260.156C253.222 260.374 253.038 260.591 252.848 260.815C249.18 265.029 249.18 265.03 247.155 266.118C245.809 266.839 245.809 266.839 245.026 268.088C244.953 268.833 244.958 269.543 244.991 270.291C244.992 270.695 244.992 270.695 244.993 271.106C244.996 271.963 245.017 272.818 245.039 273.674C245.056 274.531 245.069 275.387 245.073 276.245C245.077 276.777 245.087 277.309 245.106 277.841C245.12 279.115 245.099 279.666 244.323 280.722C243.563 281.25 243.563 281.25 242.543 281.232C241.594 280.969 241.594 280.969 240.75 280.406C240.019 280.35 239.317 280.327 238.585 280.329C238.365 280.328 238.145 280.326 237.919 280.325C237.19 280.321 236.462 280.321 235.734 280.322C235.228 280.321 234.721 280.319 234.215 280.318C233.154 280.316 232.092 280.316 231.03 280.317C229.671 280.319 228.311 280.314 226.952 280.308C225.906 280.304 224.86 280.303 223.814 280.304C223.313 280.304 222.812 280.303 222.311 280.3C221.609 280.296 220.908 280.298 220.206 280.302C220 280.299 219.793 280.297 219.58 280.295C218.32 280.308 217.596 280.544 216.563 281.25C215.701 281.355 215.701 281.355 214.875 281.25C214.709 281.111 214.543 280.972 214.372 280.829C213.541 280.264 212.971 280.295 211.97 280.285C211.61 280.279 211.249 280.274 210.878 280.268C210.486 280.266 210.095 280.264 209.703 280.262C209.301 280.258 208.899 280.253 208.497 280.247C207.441 280.234 206.385 280.225 205.329 280.218C204.25 280.21 203.172 280.196 202.094 280.184C199.979 280.16 197.865 280.141 195.75 280.125C195.657 280.403 195.564 280.682 195.469 280.969C194.585 281.411 193.619 281.396 192.656 281.25C192.384 281.042 192.384 281.042 192.105 280.829C190.824 280.196 189.62 280.287 188.209 280.294C187.899 280.292 187.588 280.29 187.269 280.288C186.228 280.283 185.187 280.284 184.145 280.285C183.4 280.282 182.654 280.279 181.909 280.276C180.303 280.27 178.696 280.266 177.09 280.265C174.768 280.263 172.446 280.257 170.123 280.249C166.356 280.237 162.588 280.229 158.82 280.222C155.16 280.217 151.5 280.209 147.84 280.199C147.615 280.198 147.389 280.198 147.157 280.197C146.025 280.194 144.893 280.191 143.761 280.188C134.372 280.161 124.983 280.141 115.594 280.125C115.501 280.403 115.408 280.682 115.313 280.969C114.424 281.413 113.454 281.48 112.5 281.25C111.607 280.525 111.145 280.104 110.921 278.959C110.922 278.624 110.923 278.29 110.925 277.945C110.924 277.758 110.922 277.57 110.921 277.377C110.919 276.752 110.927 276.127 110.934 275.502C110.935 275.053 110.934 274.603 110.934 274.154C110.933 272.936 110.941 271.719 110.951 270.501C110.96 269.228 110.961 267.954 110.963 266.681C110.967 264.271 110.978 261.86 110.993 259.45C111.008 256.705 111.016 253.961 111.023 251.216C111.038 245.571 111.063 239.926 111.094 234.281C110.77 234.28 110.447 234.279 110.114 234.278C108.909 234.272 107.705 234.256 106.5 234.238C105.98 234.232 105.459 234.228 104.939 234.226C104.189 234.224 103.439 234.212 102.689 234.199C102.458 234.2 102.227 234.201 101.989 234.202C100.333 234.161 99.5922 233.789 98.4376 232.594C98.1038 231.926 98.1224 231.524 98.1244 230.78C98.1244 230.521 98.1245 230.262 98.1245 229.995C98.1259 229.715 98.1274 229.435 98.1289 229.146C98.1295 228.717 98.1295 228.717 98.1301 228.278C98.1317 227.361 98.1352 226.444 98.1388 225.527C98.1402 224.907 98.1415 224.286 98.1426 223.665C98.1457 222.141 98.1504 220.618 98.1563 219.094C95.838 219.67 95.838 219.67 93.5245 220.266C89.2936 221.353 85.4813 221.547 81.545 219.322C80.4085 218.636 79.3424 217.868 78.2706 217.086C77.9918 216.883 77.713 216.68 77.4257 216.47C77.2131 216.315 77.0004 216.16 76.7814 216C76.7683 218.039 76.7583 220.078 76.7522 222.117C76.7493 223.064 76.7453 224.01 76.7389 224.957C76.7321 226.046 76.7289 227.134 76.7264 228.222C76.7235 228.562 76.7206 228.903 76.7176 229.253C76.7176 229.726 76.7176 229.726 76.7175 230.208C76.7162 230.486 76.715 230.764 76.7137 231.051C76.7327 231.821 76.7327 231.821 77.3439 232.594C78.0677 232.75 78.0677 232.75 78.9237 232.77C79.2484 232.788 79.5732 232.806 79.9078 232.825C80.2567 232.841 80.6055 232.858 80.9649 232.875C84.298 233.074 87.5627 233.376 90.8439 234C91.0467 234.038 91.2495 234.077 91.4584 234.116C95.9681 235.008 99.9796 236.938 102.604 240.838C105.869 246.381 105.664 253.363 106.067 259.611C106.114 260.323 106.162 261.034 106.21 261.745C106.908 272.155 106.908 272.155 106.981 277.031C106.991 277.318 107.002 277.606 107.012 277.901C107.037 279.941 107.037 279.941 106.219 280.873C105.312 281.329 104.785 281.399 103.781 281.25C103.636 281.111 103.49 280.971 103.34 280.827C102.253 280.158 101.15 280.286 99.8988 280.294C99.4952 280.293 99.4952 280.293 99.0834 280.292C98.5146 280.291 97.9458 280.293 97.377 280.296C96.5091 280.301 95.6416 280.296 94.7737 280.291C94.2203 280.291 93.667 280.293 93.1136 280.294C92.8552 280.292 92.5967 280.291 92.3304 280.289C90.8443 280.305 89.9131 280.506 88.5939 281.25C86.935 281.194 86.935 281.194 86.1642 280.634C85.6372 279.933 85.5873 279.351 85.4739 278.484C85.43 278.156 85.3861 277.828 85.3408 277.491C85.3006 277.154 85.2603 276.816 85.2189 276.469C85.1817 276.159 85.1446 275.848 85.1064 275.529C84.9966 274.565 84.8945 273.6 84.7948 272.635C84.7581 272.286 84.7215 271.937 84.6837 271.578C84.6072 270.849 84.5311 270.119 84.4554 269.39C84.3392 268.27 84.2216 267.151 84.1037 266.032C84.0293 265.321 83.955 264.609 83.8807 263.898C83.8456 263.563 83.8104 263.229 83.7742 262.884C83.7263 262.42 83.7263 262.42 83.6773 261.947C83.6491 261.675 83.6208 261.403 83.5916 261.123C83.5314 260.438 83.5314 260.438 83.5314 259.594C81.3967 259.594 79.262 259.594 77.0626 259.594C77.3504 261.738 77.6388 263.882 77.9281 266.026C78.0624 267.022 78.1965 268.017 78.3301 269.013C78.4837 270.158 78.6383 271.303 78.7929 272.448C78.8407 272.805 78.8885 273.162 78.9377 273.53C78.9827 273.862 79.0277 274.194 79.0741 274.537C79.1135 274.829 79.1528 275.121 79.1934 275.422C79.294 276.068 79.4276 276.681 79.5939 277.313C79.889 279.401 79.889 279.401 79.2763 280.321C78.5792 280.958 77.9672 281.239 77.045 281.408C75.9721 281.203 75.5737 280.914 74.8126 280.125C74.4944 279.288 74.3646 278.435 74.2281 277.552C74.1837 277.293 74.1393 277.035 74.0935 276.769C73.9505 275.92 73.8178 275.07 73.6876 274.219C73.6428 273.93 73.5979 273.64 73.5517 273.343C73.2748 271.541 73.014 269.737 72.7616 267.932C72.6306 266.995 72.4973 266.058 72.3638 265.122C72.279 264.524 72.1944 263.925 72.11 263.327C72.0704 263.048 72.0309 262.77 71.9902 262.483C71.9544 262.226 71.9186 261.969 71.8817 261.705C71.8344 261.367 71.8344 261.367 71.786 261.022C71.7189 260.438 71.7189 260.438 71.7189 259.594C63.1801 259.594 54.6414 259.594 45.8439 259.594C44.7364 266.199 44.7364 266.199 43.6719 272.811C43.4769 274.039 43.4769 274.039 43.3853 274.611C43.3227 275.009 43.2622 275.408 43.2032 275.807C43.1128 276.415 43.0151 277.021 42.916 277.628C42.8634 277.968 42.8108 278.309 42.7566 278.66C42.4086 279.752 41.9386 280.245 41.0626 280.969C40.4012 281.126 40.4012 281.126 39.7618 281.092C39.5494 281.086 39.3369 281.079 39.118 281.073C38.5314 280.969 38.5314 280.969 37.6876 280.406C36.8902 280.306 36.8902 280.306 36.0177 280.318C35.7251 280.314 35.4325 280.309 35.1311 280.304C34.2148 280.418 33.8813 280.668 33.1876 281.25C32.0333 281.451 31.575 281.293 30.5509 280.705C30.0444 280.236 29.8355 279.983 29.7227 279.297C29.7541 277.72 29.9734 276.261 30.318 274.724C30.9609 271.69 31.418 268.641 31.8517 265.57C31.9277 265.04 32.0039 264.51 32.0802 263.981C32.2634 262.706 32.4448 261.431 32.6251 260.156C32.4032 260.075 32.1813 259.993 31.9527 259.909C31.1153 259.549 30.8418 259.239 30.3751 258.469C30.1186 257.699 30.035 257.14 29.9829 256.341C29.9643 256.076 29.9457 255.812 29.9266 255.539C29.9064 255.247 29.8862 254.955 29.8653 254.654C29.659 251.896 29.3757 249.155 29.0392 246.41C28.2734 240.139 27.6672 233.851 27.0355 227.565C26.808 225.307 26.5755 223.049 26.3376 220.792C26.3076 220.507 26.2775 220.222 26.2465 219.928C26.1871 219.364 26.1276 218.8 26.0682 218.237C25.5574 213.395 25.0832 208.551 24.6458 203.702C24.3811 200.773 24.0851 197.856 23.6954 194.941C23.2129 191.261 22.8907 188.386 24.961 185.133C26.4851 183.609 28.1275 182.777 30.2872 182.725C32.2028 182.75 33.3853 183.133 34.8279 184.385C36.3454 185.949 37.1406 187.854 37.9689 189.844C38.0617 189.844 38.1545 189.844 38.2501 189.844C38.2683 189.667 38.2865 189.491 38.3052 189.309C39.1064 181.759 40.4565 173.055 46.6876 167.906C48.3082 166.667 50.0083 165.612 51.7962 164.632C51.9666 164.506 52.137 164.38 52.3126 164.25C52.4096 163.406 52.4096 163.406 51.8896 162.962C51.6986 162.807 51.5075 162.652 51.3107 162.492C51.1044 162.317 50.8981 162.143 50.6855 161.963C50.48 161.789 50.2744 161.616 50.0626 161.438C45.8461 157.813 43.4574 151.574 42.9674 146.097C42.5882 139.648 44.3906 133.754 48.6564 128.813C52.3545 124.979 57.6887 121.836 63.1155 121.679C63.7391 121.679 64.3628 121.684 64.9864 121.693C65.4533 121.692 65.4533 121.692 65.9296 121.691C71.6688 121.728 76.4181 123.905 80.5079 127.881C85.057 132.508 87.7439 139.381 87.8028 145.863C87.7499 149.699 86.9481 153.346 84.9772 156.653C84.608 157.27 84.608 157.27 84.2872 158.203C82.2918 162.342 77.4956 164.767 73.336 166.267C72.7057 166.457 72.0789 166.633 71.4376 166.781C71.4376 167.838 72.4286 168.58 73.1251 169.313C73.4768 169.605 73.8314 169.895 74.1886 170.18C75.5351 171.348 76.4175 172.706 77.3439 174.217C77.5159 174.492 77.688 174.768 77.8652 175.052C78.8888 176.714 79.8281 178.39 80.668 180.151C82.7096 184.406 85.1541 188.496 87.504 192.586C87.6234 192.795 87.7428 193.004 87.8658 193.219C88.4242 194.183 89.0047 195.102 89.6639 196.001C90.2814 196.875 90.2814 196.875 90.2814 197.438C92.3498 198.127 94.5972 197.571 96.6974 197.244C99.2467 196.86 101.796 196.522 104.358 196.236C104.626 196.205 104.895 196.175 105.171 196.144C106.512 195.994 107.853 195.848 109.195 195.705C112.333 195.363 115.139 194.96 117.967 193.465C119.54 192.64 120.607 192.331 122.397 192.322C122.754 192.318 123.112 192.314 123.481 192.31C124.594 192.375 124.594 192.375 126.844 192.938C126.844 188.111 126.844 183.285 126.844 178.313C126.194 178.313 125.544 178.313 124.875 178.313C124.135 177.701 123.617 177.203 123.188 176.344C123.158 175.954 123.146 175.562 123.142 175.171C123.14 174.928 123.137 174.686 123.134 174.437C123.132 174.043 123.132 174.043 123.13 173.641C123.129 173.371 123.127 173.101 123.126 172.823C123.123 172.251 123.121 171.679 123.12 171.107C123.117 170.234 123.109 169.361 123.1 168.489C123.098 167.933 123.096 167.377 123.095 166.821C123.092 166.561 123.088 166.3 123.085 166.032C123.09 164.581 123.169 163.51 124.031 162.281C125.153 161.441 125.981 161.331 127.368 161.327C127.558 161.325 127.749 161.323 127.946 161.321C128.582 161.317 129.219 161.318 129.856 161.319C130.314 161.317 130.771 161.315 131.229 161.312C132.47 161.306 133.711 161.305 134.952 161.306C135.989 161.306 137.025 161.303 138.062 161.301C140.507 161.296 142.953 161.295 145.398 161.297C147.92 161.299 150.442 161.292 152.964 161.282C155.131 161.273 157.297 161.27 159.463 161.271C160.757 161.271 162.05 161.27 163.343 161.263C164.56 161.257 165.776 161.257 166.992 161.263C167.438 161.264 167.884 161.263 168.33 161.259C168.94 161.253 169.549 161.257 170.159 161.263C170.5 161.263 170.841 161.262 171.192 161.262C172.443 161.497 172.911 161.956 173.813 162.844C174.138 163.494 174.134 163.881 174.144 164.605C174.147 164.853 174.151 165.101 174.155 165.356C174.158 165.759 174.158 165.759 174.161 166.17C174.163 166.447 174.165 166.723 174.168 167.007C174.172 167.593 174.175 168.178 174.177 168.763C174.182 169.657 174.194 170.55 174.206 171.443C174.209 172.012 174.212 172.58 174.214 173.149C174.219 173.415 174.223 173.682 174.229 173.956C174.223 175.518 174.129 176.588 172.969 177.75C172.319 177.843 171.669 177.936 171 178.031C171.093 183.136 171.186 188.241 171.281 193.5C171.467 193.5 171.653 193.5 171.844 193.5C172.324 192.663 172.451 192.084 172.459 191.127C172.759 187.762 175.408 184.72 177.307 182.034C177.775 181.37 178.241 180.704 178.706 180.037C179.536 178.848 180.369 177.66 181.202 176.474C181.67 175.807 182.135 175.138 182.599 174.47C186.571 168.767 190.464 164.639 197.068 162.123C197.254 162.052 197.439 161.982 197.63 161.909C198.628 161.55 199.471 161.358 200.531 161.438C200.347 159.926 200.347 159.926 199.49 158.732C199.097 158.455 198.701 158.182 198.303 157.913C193.924 154.818 191.733 147.968 190.784 142.919C190.356 140.232 190.337 137.517 190.323 134.802C190.32 134.351 190.314 133.9 190.306 133.449C190.176 126.395 192.186 120.366 197.055 115.137C203.004 109.149 211.879 107.087 219.938 109.406Z" fill="#013B15"/>
<path d="M202.796 15.4215C202.979 15.4203 203.162 15.4191 203.351 15.4178C203.94 15.415 204.53 15.415 205.119 15.416C205.321 15.4163 205.523 15.4165 205.731 15.4168C218.056 15.4517 229.152 19.6179 237.938 28.4062C245.035 35.6923 250.229 45.9527 250.389 56.2588C250.395 56.5731 250.395 56.5731 250.4 56.8939C250.467 61.814 250.288 66.3942 248.906 71.1562C248.845 71.3792 248.783 71.6022 248.719 71.8319C247.336 76.7471 245.201 81.5986 241.875 85.5C241.618 85.8128 241.361 86.126 241.105 86.4393C233.627 95.4729 223.112 102.448 211.213 103.651C199.292 104.64 187.228 101.767 177.902 94.0248C176.594 92.9117 175.332 91.7518 174.094 90.5625C173.862 90.3426 173.862 90.3426 173.625 90.1183C172.345 88.8799 171.261 87.5503 170.209 86.1152C169.954 85.7667 169.954 85.7667 169.693 85.4112C168.04 83.112 166.639 80.7194 165.375 78.1875C165.281 77.9988 165.186 77.8101 165.089 77.6156C163.626 74.6387 162.705 71.5791 162 68.3437C161.954 68.134 161.907 67.9243 161.859 67.7083C159.571 56.9455 161.967 45.5806 167.654 36.2395C168.687 34.6868 169.826 33.2284 171 31.7812C171.126 31.624 171.253 31.4668 171.383 31.3048C178.184 22.8809 188.148 17.3451 198.844 15.75C199.307 15.6761 199.307 15.6761 199.779 15.6008C200.796 15.4709 201.771 15.4279 202.796 15.4215Z" fill="#089C23"/>
<path d="M115.875 234C140.656 234 165.437 234 190.969 234C191.133 237.948 191.293 241.863 191.287 245.809C191.288 246.271 191.288 246.732 191.288 247.193C191.289 248.156 191.288 249.118 191.287 250.081C191.285 251.026 191.285 251.972 191.287 252.917C191.298 261.99 191.123 271.05 190.969 280.125C166.188 280.125 141.407 280.125 115.875 280.125C115.875 264.904 115.875 249.682 115.875 234Z" fill="#089B23"/>
<path d="M227.813 161.438C234.372 161.792 241.653 163.701 246.656 168.188C246.87 168.378 247.083 168.569 247.303 168.765C253.522 174.639 254.728 184.194 255.551 192.287C255.589 192.64 255.626 192.992 255.665 193.356C255.855 195.196 255.982 196.994 255.938 198.844C245.638 200.078 245.638 200.078 241.981 200.092C241.63 200.096 241.63 200.096 241.272 200.1C239.801 200.079 239.801 200.079 239.152 199.673C238.585 198.835 238.626 197.959 238.596 196.978C238.586 196.767 238.576 196.556 238.566 196.338C238.534 195.662 238.508 194.985 238.483 194.309C238.618 190.05 238.618 190.05 237.255 186.274C236.821 185.856 236.821 185.856 236.162 185.766C235.098 185.964 234.383 186.478 233.719 187.312C233.58 188.161 233.545 188.765 233.598 189.603C233.605 189.825 233.612 190.046 233.62 190.274C233.645 190.975 233.681 191.675 233.719 192.375C233.736 192.818 233.753 193.261 233.769 193.705C233.811 194.795 233.867 195.885 233.928 196.975C233.966 197.641 233.999 198.308 234.032 198.975C234.056 199.407 234.079 199.839 234.103 200.271C234.113 200.466 234.122 200.662 234.132 200.863C234.244 203.11 234.244 203.11 235.361 204.949C235.556 205.051 235.751 205.154 235.951 205.26C236.145 205.366 236.339 205.472 236.539 205.582C236.722 205.678 236.905 205.775 237.094 205.875C237.938 206.438 237.938 206.438 238.128 206.956C238.223 207.587 238.262 208.19 238.272 208.828C238.277 209.08 238.282 209.331 238.286 209.589C238.29 209.862 238.294 210.134 238.298 210.415C238.303 210.701 238.308 210.988 238.313 211.283C238.33 212.223 238.345 213.162 238.359 214.102C238.381 215.403 238.404 216.705 238.427 218.007C238.432 218.335 238.438 218.662 238.444 219C238.481 221.113 238.534 223.226 238.6 225.339C238.612 225.733 238.612 225.733 238.624 226.135C238.669 227.63 238.669 227.63 238.72 229.124C238.744 229.797 238.765 230.471 238.785 231.145C238.793 231.342 238.801 231.54 238.809 231.744C238.822 232.214 238.804 232.686 238.781 233.156C238.077 233.86 237.854 233.791 236.881 233.797C236.457 233.802 236.457 233.802 236.025 233.807C235.714 233.807 235.403 233.808 235.083 233.808C234.756 233.811 234.43 233.814 234.093 233.817C233.01 233.826 231.926 233.83 230.843 233.835C230.093 233.84 229.344 233.846 228.594 233.852C226.82 233.865 225.046 233.875 223.272 233.885C221.253 233.895 219.233 233.909 217.214 233.923C213.059 233.952 208.905 233.978 204.75 234C204.956 233.691 204.956 233.691 205.165 233.376C205.598 232.587 205.7 232.202 205.703 231.32C205.706 231.077 205.708 230.834 205.711 230.584C205.709 230.325 205.708 230.066 205.706 229.799C205.707 229.529 205.708 229.26 205.708 228.983C205.709 228.414 205.707 227.846 205.704 227.278C205.699 226.409 205.704 225.541 205.709 224.673C205.709 224.12 205.708 223.567 205.706 223.014C205.708 222.755 205.709 222.496 205.711 222.229C205.694 220.372 205.694 220.372 204.75 218.812C203.097 217.662 201.238 217.812 199.301 217.775C198.96 217.766 198.619 217.756 198.267 217.746C197.428 217.723 196.589 217.704 195.75 217.688C195.751 217.53 195.751 217.373 195.752 217.211C195.764 213.387 195.773 209.564 195.779 205.74C195.782 203.891 195.786 202.042 195.793 200.193C195.799 198.409 195.802 196.626 195.803 194.842C195.805 194.161 195.807 193.479 195.81 192.798C195.814 191.846 195.814 190.893 195.814 189.941C195.816 189.658 195.818 189.374 195.82 189.082C195.819 188.823 195.819 188.564 195.818 188.297C195.818 188.071 195.819 187.846 195.819 187.614C195.784 186.945 195.784 186.945 195.188 186.188C193.687 186.04 192.756 186.067 191.531 187.031C191.201 187.693 191.206 188.108 191.192 188.845C191.187 189.104 191.181 189.363 191.175 189.63C191.168 190.05 191.168 190.05 191.161 190.479C191.155 190.765 191.149 191.051 191.143 191.347C191.125 192.264 191.108 193.181 191.092 194.098C191.08 194.718 191.068 195.339 191.055 195.96C191.025 197.484 190.996 199.007 190.969 200.531C189.692 200.135 188.93 199.757 187.963 198.826C187.003 197.928 186.034 197.067 185.01 196.242C183.693 195.176 182.405 194.082 181.125 192.973C180.943 192.815 180.761 192.658 180.573 192.496C179.591 191.642 179.591 191.642 179.156 191.25C178.998 191.111 178.839 190.972 178.676 190.829C178.313 190.406 178.313 190.406 178.353 189.6C179.333 186.011 182.372 182.704 184.5 179.719C184.767 179.343 185.034 178.967 185.301 178.59C185.968 177.652 186.64 176.716 187.313 175.781C187.515 175.498 187.717 175.214 187.926 174.922C188.464 174.172 189.01 173.427 189.563 172.688C189.7 172.503 189.837 172.318 189.978 172.128C192.447 169.017 196.687 166.99 200.531 166.219C201 166.207 201.469 166.204 201.938 166.219C202.01 166.369 202.082 166.519 202.156 166.674C203.843 169.957 206.02 172.08 209.531 173.25C214.021 173.649 217.45 172.039 221.063 169.594C221.481 169.312 221.481 169.312 221.909 169.025C224.492 167.104 226.413 164.323 227.813 161.438Z" fill="#089C23"/>
<path d="M67.4078 171.225C71.0604 173.639 73.3733 176.879 75.2872 180.756C75.629 181.431 75.9716 182.106 76.3155 182.781C76.4013 182.949 76.4871 183.118 76.5755 183.292C77.4159 184.938 78.3108 186.55 79.2247 188.156C79.3727 188.417 79.5207 188.679 79.6732 188.948C80.411 190.242 81.1635 191.526 81.9361 192.8C82.0834 193.046 82.2307 193.291 82.3825 193.545C82.6608 194.007 82.9429 194.467 83.2294 194.924C83.3519 195.128 83.4744 195.332 83.6006 195.542C83.7098 195.719 83.8191 195.896 83.9317 196.078C84.0938 196.594 84.0938 196.594 83.8957 197.169C83.5338 197.715 83.177 198.119 82.6942 198.559C82.5298 198.711 82.3654 198.862 82.1961 199.018C82.0218 199.175 81.8476 199.332 81.6681 199.494C81.4007 199.739 81.4007 199.739 81.1279 199.989C80.0487 200.974 78.9539 201.939 77.8459 202.892C77.2852 203.396 76.7623 203.928 76.2364 204.469C75.1019 205.624 73.8617 206.6 72.5626 207.563C71.4443 206.483 70.4466 205.342 69.4688 204.135C69.3104 203.94 69.152 203.744 68.9888 203.543C67.5058 201.696 66.1238 199.783 64.748 197.856C63.8505 196.599 62.9382 195.354 62.0157 194.115C61.8806 193.932 61.7456 193.749 61.6064 193.56C60.8294 192.52 60.0444 191.545 59.0626 190.688C58.0785 190.552 57.4399 190.509 56.5489 190.969C56.0394 191.928 56.0212 192.748 56.2501 193.781C56.6913 194.709 57.2613 195.528 57.8564 196.363C58.274 196.953 58.6809 197.549 59.0879 198.146C61.0132 200.952 63.0276 203.67 65.1391 206.339C65.7861 207.159 66.4113 207.991 67.0222 208.839C67.2454 209.147 67.2454 209.147 67.473 209.461C67.7505 209.845 68.0252 210.232 68.2962 210.621C68.4845 210.881 68.4845 210.881 68.6767 211.146C68.7827 211.297 68.8888 211.447 68.998 211.602C69.7168 212.305 70.5544 212.71 71.4376 213.188C71.4571 215.671 71.4721 218.155 71.4813 220.639C71.4857 221.792 71.4917 222.946 71.5012 224.099C71.5104 225.211 71.5154 226.324 71.5176 227.436C71.5192 227.861 71.5223 228.286 71.5268 228.711C71.5329 229.305 71.5338 229.899 71.5334 230.493C71.5362 231.001 71.5362 231.001 71.539 231.519C71.5056 231.781 71.4721 232.043 71.4376 232.313C70.5604 232.897 70.3718 232.945 69.3769 232.945C69.0043 232.946 69.0043 232.946 68.6241 232.948C68.3524 232.947 68.0806 232.945 67.8006 232.943C67.5138 232.944 67.227 232.944 66.9315 232.945C65.9813 232.946 65.0313 232.943 64.0811 232.94C63.4223 232.94 62.7634 232.939 62.1045 232.939C60.7228 232.939 59.3411 232.937 57.9594 232.933C56.1861 232.928 54.4127 232.927 52.6394 232.927C51.2786 232.927 49.9178 232.926 48.557 232.924C47.903 232.923 47.2491 232.922 46.5951 232.922C45.682 232.921 44.7689 232.919 43.8559 232.916C43.5841 232.916 43.3123 232.916 43.0323 232.916C42.7839 232.915 42.5354 232.914 42.2795 232.913C42.0636 232.912 41.8477 232.912 41.6252 232.911C41.0626 232.875 41.0626 232.875 40.2188 232.594C40.0332 221.594 40.4963 210.597 41.5899 199.652C41.6245 199.301 41.6591 198.949 41.6947 198.586C42.1012 194.506 42.6591 190.507 43.4795 186.49C43.7115 185.306 43.8622 184.113 44.0157 182.918C44.7236 177.931 46.8936 173.765 50.9239 170.613C56.1048 166.963 62.2526 168.075 67.4078 171.225Z" fill="#EFC31A"/>
<path d="M201.913 238.464C202.236 238.463 202.559 238.463 202.891 238.462C203.951 238.461 205.012 238.462 206.072 238.463C206.814 238.462 207.557 238.462 208.299 238.462C209.854 238.461 211.408 238.462 212.963 238.463C214.749 238.465 216.535 238.464 218.321 238.463C219.864 238.462 221.407 238.461 222.95 238.462C223.867 238.463 224.785 238.462 225.702 238.462C233.013 238.457 233.013 238.457 236.531 238.781C236.297 239.173 236.297 239.173 236.059 239.573C235.853 239.924 235.647 240.276 235.441 240.627C235.339 240.798 235.236 240.97 235.131 241.146C233.01 244.789 233.104 249.371 233.051 253.477C233.04 253.928 233.04 253.928 233.029 254.389C233.025 256.105 233.077 257.195 234.281 258.469C234.84 258.757 234.84 258.757 235.424 258.891C236.017 259.148 236.017 259.148 236.531 259.594C236.868 260.576 237.04 261.518 237.187 262.545C237.39 263.61 237.627 264.308 238.219 265.219C238.547 265.429 238.882 265.63 239.221 265.824C240.125 266.454 240.173 266.562 240.432 267.721C240.442 268.148 240.441 268.575 240.431 269.001C240.436 269.344 240.436 269.344 240.44 269.694C240.447 270.423 240.441 271.152 240.434 271.881C240.436 272.605 240.44 273.329 240.445 274.053C240.448 274.502 240.448 274.951 240.445 275.4C240.439 276.99 240.567 278.546 240.75 280.125C240.468 280.127 240.185 280.128 239.895 280.13C237.234 280.146 234.573 280.167 231.912 280.191C230.544 280.204 229.176 280.215 227.808 280.222C226.488 280.23 225.168 280.241 223.847 280.255C223.344 280.26 222.84 280.263 222.336 280.265C221.631 280.268 220.925 280.276 220.22 280.285C219.908 280.284 219.908 280.284 219.589 280.283C218.329 280.306 217.597 280.544 216.563 281.25C215.701 281.355 215.701 281.355 214.875 281.25C214.709 281.111 214.542 280.972 214.371 280.829C213.546 280.267 212.989 280.295 211.996 280.285C211.464 280.276 211.464 280.276 210.921 280.268C210.535 280.266 210.15 280.264 209.764 280.262C209.369 280.258 208.973 280.252 208.577 280.247C207.538 280.234 206.498 280.225 205.459 280.218C204.398 280.21 203.336 280.196 202.275 280.184C200.194 280.16 198.113 280.141 196.031 280.125C195.71 275.826 195.713 271.532 195.722 267.223C195.723 266.22 195.723 265.216 195.724 264.213C195.725 262.322 195.727 260.43 195.73 258.539C195.733 256.382 195.734 254.225 195.736 252.068C195.739 247.639 195.744 243.21 195.75 238.781C197.81 238.532 199.839 238.46 201.913 238.464Z" fill="#089C23"/>
<path d="M202.796 15.4215C202.979 15.4203 203.162 15.4191 203.351 15.4178C203.94 15.415 204.53 15.415 205.119 15.416C205.321 15.4163 205.523 15.4165 205.731 15.4168C218.056 15.4517 229.152 19.6179 237.938 28.4062C245.035 35.6923 250.229 45.9527 250.389 56.2588C250.395 56.5731 250.395 56.5731 250.4 56.8939C250.467 61.814 250.288 66.3942 248.906 71.1562C248.845 71.3792 248.783 71.6022 248.719 71.8319C247.336 76.7471 245.201 81.5986 241.875 85.5C241.618 85.8128 241.361 86.126 241.105 86.4393C233.627 95.4729 223.112 102.448 211.213 103.651C199.292 104.64 187.228 101.767 177.902 94.0248C176.594 92.9117 175.332 91.7518 174.094 90.5625C173.862 90.3426 173.862 90.3426 173.625 90.1183C172.345 88.8799 171.261 87.5503 170.209 86.1152C169.954 85.7667 169.954 85.7667 169.693 85.4112C168.04 83.112 166.639 80.7194 165.375 78.1875C165.281 77.9988 165.186 77.8101 165.089 77.6156C163.626 74.6387 162.705 71.5791 162 68.3437C161.954 68.134 161.907 67.9243 161.859 67.7083C159.571 56.9455 161.967 45.5806 167.654 36.2395C168.687 34.6868 169.826 33.2284 171 31.7812C171.126 31.624 171.253 31.4668 171.383 31.3048C178.184 22.8809 188.148 17.3451 198.844 15.75C199.307 15.6761 199.307 15.6761 199.779 15.6008C200.796 15.4709 201.771 15.4279 202.796 15.4215ZM186.75 25.0312C186.405 25.2162 186.06 25.4012 185.715 25.586C176.902 30.3854 170.351 38.9331 167.49 48.5238C164.715 58.1973 165.913 68.8236 170.676 77.6711C170.876 78.0315 171.078 78.3911 171.281 78.75C171.387 78.938 171.492 79.1261 171.601 79.3199C173.13 82.0071 174.875 84.2949 177.054 86.4857C177.454 86.8908 177.843 87.306 178.232 87.7214C184.331 94.1153 193.653 98.4341 202.527 98.7497C210.458 98.8821 217.444 98.1731 224.438 94.2187C224.752 94.0422 225.066 93.8656 225.39 93.6837C234.097 88.5479 240.367 80.9726 243.65 71.4199C243.715 71.2347 243.78 71.0496 243.847 70.8588C245.089 67.0495 245.405 63.2524 245.373 59.2734C245.372 59.0456 245.371 58.8177 245.37 58.5829C245.349 55.0809 245.176 51.7402 244.125 48.375C244.057 48.1545 243.989 47.934 243.919 47.7069C242.053 41.8378 239.08 36.8154 234.844 32.3437C234.613 32.0947 234.382 31.8456 234.144 31.589C227.413 24.5588 217.727 20.4684 208.015 20.1928C200.399 20.0903 193.454 21.3232 186.75 25.0312Z" fill="#013A15"/>
<path d="M40.7813 237.937C46.285 237.918 51.7887 237.903 57.2925 237.894C59.8486 237.889 62.4047 237.883 64.9609 237.874C67.1918 237.865 69.4227 237.86 71.6536 237.858C72.8321 237.857 74.0106 237.854 75.1892 237.848C92.7301 237.759 92.7301 237.759 97.8278 242.651C100.482 245.53 100.44 249.54 100.688 253.258C100.71 253.581 100.733 253.905 100.756 254.238C100.829 255.279 100.899 256.32 100.969 257.361C101.018 258.082 101.068 258.803 101.117 259.523C101.443 264.295 101.736 269.067 101.983 273.843C102.096 275.938 102.236 278.032 102.375 280.125C98.3841 280.125 94.3932 280.125 90.2813 280.125C89.8946 275.062 89.8946 275.062 89.7766 273.496C89.6118 271.352 89.4263 269.217 89.1442 267.085C88.8322 264.711 88.6839 262.337 88.5592 259.947C88.5391 259.629 88.519 259.311 88.4983 258.984C88.4827 258.702 88.4671 258.42 88.4511 258.129C88.2451 256.961 87.7362 256.205 86.9063 255.375C86.1102 255.11 85.3754 255.057 84.5402 255.051C84.2932 255.049 84.0463 255.046 83.7918 255.044C83.5229 255.043 83.254 255.042 82.9769 255.04C82.5492 255.037 82.5492 255.037 82.1128 255.033C81.4925 255.028 80.8723 255.024 80.252 255.02C79.2634 255.015 78.2749 255.007 77.2864 254.999C75.1786 254.982 73.0708 254.967 70.963 254.953C68.5385 254.936 66.1141 254.919 63.6897 254.899C62.7282 254.892 61.7667 254.886 60.8052 254.88C59.0054 254.867 57.2059 254.845 55.4063 254.812C54.9279 254.804 54.9279 254.804 54.4398 254.795C53.4801 254.775 52.5208 254.749 51.5613 254.721C51.271 254.715 50.9807 254.709 50.6816 254.703C48.3639 254.622 46.7522 254.17 45.0001 252.562C44.8275 252.407 44.6549 252.251 44.4771 252.09C42.4408 249.822 41.9332 246.064 41.2559 243.176C41.2077 242.975 41.1594 242.775 41.1097 242.569C40.8627 241.453 40.7585 240.412 40.769 239.267C40.7708 239.017 40.7726 238.767 40.7744 238.51C40.7767 238.321 40.779 238.132 40.7813 237.937Z" fill="#089C23"/>
<path d="M189.281 48.6563C191.138 48.6563 192.994 48.6563 194.906 48.6563C194.977 50.6953 194.977 50.6953 194.99 51.3317C195.038 52.2754 195.136 52.8066 195.711 53.565C196.306 54.0632 196.306 54.0632 197.156 54.1406C198.213 53.9645 198.484 53.7246 199.125 52.875C199.251 51.8987 199.251 51.8987 199.178 50.8535C199.153 50.2151 199.134 49.5764 199.125 48.9375C199.627 48.436 200.299 48.6201 200.967 48.6172C201.296 48.618 201.296 48.618 201.631 48.6189C201.856 48.6186 202.082 48.6184 202.314 48.6181C202.792 48.6179 203.271 48.6184 203.75 48.6196C204.476 48.6211 205.203 48.6196 205.929 48.6178C206.395 48.618 206.861 48.6184 207.326 48.6189C207.649 48.6181 207.649 48.6181 207.978 48.6172C209.363 48.6231 210.692 48.742 212.063 48.9375C212.05 49.2526 212.036 49.5676 212.023 49.8922C212.012 50.3064 212.002 50.7206 211.992 51.1348C211.983 51.3423 211.973 51.5499 211.964 51.7637C211.932 52.9897 211.932 52.9897 212.558 53.9967C213.598 54.467 214.298 54.3898 215.438 54.2813C216.033 53.8454 216.251 53.6012 216.386 52.8706C216.395 52.5596 216.395 52.5596 216.404 52.2422C216.507 50.8792 216.94 50.0708 217.688 48.9375C218.256 48.9298 218.824 48.9244 219.393 48.9199C219.709 48.9167 220.026 48.9134 220.352 48.91C221.359 48.9379 222.317 49.0688 223.313 49.2188C224.033 55.4452 224.729 61.6735 225.295 67.9162C225.344 68.4526 225.393 68.9889 225.443 69.5252C226.269 78.4378 226.269 78.4378 225.316 79.7871C222.822 81.6333 220.137 81.8848 217.127 81.8935C216.709 81.8963 216.709 81.8963 216.282 81.8991C215.363 81.9047 214.444 81.908 213.525 81.9108C213.21 81.9119 212.895 81.9131 212.571 81.9143C210.905 81.9201 209.239 81.9241 207.573 81.9268C205.855 81.9299 204.138 81.9396 202.42 81.9507C201.097 81.9581 199.773 81.9604 198.449 81.9614C197.816 81.9628 197.183 81.9661 196.55 81.9713C195.663 81.9782 194.776 81.9779 193.889 81.9759C193.63 81.9795 193.37 81.9831 193.103 81.9869C191.352 81.9729 189.95 81.6262 188.438 80.7188C186.885 79.1269 186.969 77.6864 186.989 75.5592C187.019 74.2683 187.143 72.9975 187.281 71.7144C187.541 69.1332 187.72 66.5495 187.875 63.9602C187.887 63.7689 187.898 63.5776 187.91 63.3806C188.018 61.5936 188.124 59.8066 188.227 58.0194C188.284 57.0295 188.343 56.0398 188.404 55.0502C188.437 54.4996 188.467 53.9488 188.498 53.3981C188.519 53.0625 188.539 52.727 188.561 52.3813C188.578 52.0887 188.595 51.7961 188.612 51.4947C188.719 50.625 188.719 50.625 189.281 48.6563Z" fill="#EEC31A"/>
<path d="M213.187 32.3438C216.346 34.8972 216.655 39.0295 217.289 42.7831C217.357 43.3133 217.357 43.3133 217.687 43.5938C218.144 43.6313 218.603 43.651 219.061 43.663C219.343 43.6722 219.625 43.6815 219.916 43.691C220.509 43.708 221.103 43.7242 221.698 43.7394C224.154 43.8224 226.024 43.9719 227.812 45.8438C228.532 47.7179 228.598 49.7125 228.769 51.6973C228.804 52.0835 228.839 52.4697 228.874 52.8558C228.967 53.8751 229.057 54.8945 229.147 55.914C229.253 57.1168 229.361 58.3193 229.47 59.5218C229.559 60.5181 229.649 61.5144 229.737 62.5107C229.914 64.5044 230.1 66.4966 230.304 68.4877C230.344 68.8783 230.383 69.2688 230.423 69.6594C230.496 70.3826 230.572 71.1053 230.65 71.8281C231.461 79.8018 231.461 79.8018 228.902 83.0567C225.808 86.2477 220.971 86.32 216.767 86.4065C214.749 86.4246 212.731 86.4092 210.713 86.3853C209.388 86.3704 208.063 86.3616 206.738 86.3533C206.038 86.3485 205.338 86.3421 204.638 86.3336C203.05 86.3198 201.508 86.3549 199.933 86.5592C195.38 87.1285 189.199 87.1907 185.304 84.5256C183.417 83.0404 182.362 81.1093 181.969 78.75C181.795 75.7283 182.115 72.7214 182.401 69.7167C182.534 68.3197 182.661 66.9222 182.788 65.5247C182.814 65.2421 182.84 64.9596 182.867 64.6684C183.1 62.1216 183.314 59.5735 183.515 57.024C183.55 56.5883 183.585 56.1526 183.62 55.7169C183.669 55.1059 183.717 54.4947 183.765 53.8836C183.781 53.6889 183.797 53.4942 183.813 53.2936C183.897 52.2072 183.95 51.1259 183.973 50.0364C183.98 49.7964 183.987 49.5564 183.994 49.3091C184.007 48.8477 184.014 48.3861 184.014 47.9246C184.047 46.811 184.155 46.0577 184.847 45.162C186.136 43.962 187.098 43.8037 188.83 43.8201C189.168 43.8219 189.506 43.8237 189.854 43.8256C190.205 43.8303 190.555 43.835 190.916 43.8399C191.45 43.8437 191.45 43.8437 191.994 43.8476C192.871 43.8542 193.748 43.8634 194.625 43.875C194.622 43.7129 194.618 43.5508 194.614 43.3837C194.567 39.5063 195.717 36.1405 198.334 33.2227C202.702 29.1901 208.461 29.1519 213.187 32.3438ZM189.281 48.6563C188.883 50.051 188.641 50.9954 188.561 52.3813C188.54 52.7169 188.519 53.0524 188.498 53.3981C188.468 53.9364 188.468 53.9364 188.437 54.4856C188.415 54.8659 188.392 55.2462 188.368 55.6265C188.307 56.6275 188.249 57.6286 188.191 58.6297C188.089 60.4067 187.982 62.1835 187.875 63.9602C187.858 64.2467 187.858 64.2467 187.84 64.5389C187.682 67.1664 187.486 69.787 187.21 72.405C186.701 76.4171 186.701 76.4171 187.875 80.1563C189.616 81.8499 191.465 81.9272 193.766 81.921C194.043 81.9225 194.321 81.9239 194.607 81.9254C195.522 81.9293 196.437 81.929 197.352 81.9284C197.991 81.9295 198.63 81.9307 199.269 81.932C200.608 81.9341 201.948 81.9341 203.287 81.9326C204.997 81.9309 206.707 81.9357 208.417 81.9422C209.737 81.9464 211.057 81.9466 212.378 81.9457C213.008 81.9459 213.637 81.9474 214.267 81.9502C219.968 82.1637 219.968 82.1637 225 79.875C225.938 78.8989 225.944 78.1595 225.918 76.8306C225.914 76.6448 225.911 76.4589 225.908 76.2675C225.861 74.2941 225.693 72.3318 225.504 70.3675C225.468 69.9805 225.433 69.5935 225.397 69.2065C225.322 68.4004 225.246 67.5945 225.169 66.7887C225.073 65.7789 224.979 64.769 224.886 63.759C224.437 58.9026 223.927 54.0574 223.312 49.2188C221.988 49.0193 220.733 48.9061 219.393 48.92C219.071 48.9225 218.749 48.925 218.418 48.9277C218.177 48.9309 217.936 48.9342 217.687 48.9375C216.795 50.2913 216.434 51.2462 216.386 52.8706C216.251 53.6013 216.033 53.8455 215.437 54.2813C213.579 54.4583 213.579 54.4583 212.558 53.9967C211.796 53.1364 211.943 52.2224 211.992 51.1348C211.997 50.924 212.002 50.7132 212.008 50.4959C212.021 49.9763 212.041 49.4569 212.062 48.9375C210.466 48.7087 208.927 48.618 207.316 48.6288C206.975 48.6294 206.975 48.6294 206.626 48.63C205.907 48.6316 205.188 48.6351 204.469 48.6387C203.978 48.6401 203.487 48.6414 202.995 48.6426C201.799 48.6456 200.603 48.6505 199.406 48.6563C199.194 49.6428 199.12 50.4787 199.178 51.4864C199.185 52.4409 199.181 52.7844 198.668 53.6133C197.795 54.1187 197.306 54.1657 196.312 54C195.391 53.3342 195.205 52.979 195.016 51.8423C194.997 51.4603 194.985 51.0778 194.977 50.6954C194.953 50.0225 194.93 49.3496 194.906 48.6563C193.05 48.6563 191.194 48.6563 189.281 48.6563Z" fill="#013A15"/>
<path d="M74.9981 129.686C75.7112 130.311 76.391 130.956 77.0625 131.625C77.2387 131.795 77.4149 131.964 77.5964 132.139C81.5544 136.258 82.8756 142.049 82.783 147.584C82.6131 151.463 80.9495 155.504 78.0996 158.168C74.2989 161.248 69.6065 162.888 64.6875 162.562C59.9373 161.944 55.3285 160.608 52.2597 156.674C48.9743 151.79 47.1601 146.251 47.8125 140.344C48.0673 139.149 48.4356 138.08 48.9375 136.969C49.0219 136.766 49.1064 136.563 49.1935 136.354C51.0404 132.26 54.7211 129.053 58.7988 127.318C64.3519 125.294 70.2992 125.967 74.9981 129.686Z" fill="#EFC31A"/>
<path d="M131.906 178.312C143.137 178.312 154.367 178.312 165.938 178.312C165.943 181.88 165.949 185.447 165.955 189.123C165.958 190.251 165.96 191.379 165.963 192.541C165.964 193.915 165.964 193.915 165.964 194.557C165.965 195.007 165.966 195.457 165.967 195.908C165.969 196.588 165.97 197.268 165.969 197.949C165.97 198.151 165.971 198.353 165.973 198.561C165.97 199.937 165.97 199.937 165.656 200.25C164.983 200.302 164.316 200.337 163.642 200.36C163.431 200.369 163.22 200.377 163.003 200.385C162.302 200.412 161.6 200.436 160.899 200.46C160.54 200.472 160.54 200.472 160.174 200.484C158.906 200.526 157.638 200.566 156.37 200.604C155.322 200.636 154.273 200.673 153.225 200.715C151.959 200.765 150.693 200.806 149.427 200.842C148.945 200.857 148.463 200.874 147.981 200.895C143.73 201.076 143.73 201.076 142.476 199.983C142.236 199.7 141.997 199.417 141.75 199.125C140.773 198.799 139.873 198.78 138.855 198.755C138.657 198.749 138.458 198.743 138.253 198.737C137.62 198.719 136.987 198.702 136.354 198.686C135.924 198.673 135.494 198.661 135.064 198.649C134.012 198.619 132.959 198.59 131.906 198.562C131.487 196.565 131.261 194.678 131.291 192.639C131.294 192.24 131.294 192.24 131.297 191.832C131.325 189.183 131.395 186.534 131.467 183.885C131.472 183.672 131.478 183.459 131.483 183.24C131.5 182.631 131.517 182.021 131.536 181.412C131.546 181.058 131.557 180.705 131.567 180.34C131.625 179.437 131.625 179.437 131.906 178.312Z" fill="#EFC31A"/>
<path d="M195.469 129.656C197.009 129.935 198.49 130.262 199.971 130.769C204.979 132.454 210.139 131.694 215.112 130.187C216.166 129.891 217.161 129.743 218.25 129.656C218.962 131.674 219.255 133.631 219.425 135.754C219.708 136.899 220.07 137.207 221.062 137.812C221.948 137.99 222.482 137.98 223.259 137.495C223.439 137.368 223.619 137.24 223.805 137.109C225.111 136.227 226.275 136.162 227.812 136.406C228.879 136.86 229.452 137.4 230.062 138.375C230.325 140.082 230.242 141.724 229.219 143.156C228.042 144.39 227.007 144.798 225.357 145.189C224.604 145.445 224.335 145.6 223.875 146.25C223.641 146.971 223.436 147.681 223.242 148.412C222.163 152.097 219.623 154.031 216.371 155.984C213.243 157.641 210.126 157.934 206.701 157.043C204.932 156.491 203.429 155.787 201.937 154.688C201.762 154.56 201.587 154.432 201.407 154.3C198.059 151.419 196.013 145.112 195.469 140.906C195.34 138.958 195.388 137.004 195.416 135.053C195.42 134.527 195.424 134.002 195.428 133.477C195.437 132.203 195.451 130.93 195.469 129.656Z" fill="#EEC31A"/>
<path d="M102.938 222.469C135.329 222.469 167.721 222.469 201.094 222.469C201.094 224.696 201.094 226.924 201.094 229.219C168.702 229.219 136.311 229.219 102.938 229.219C102.938 226.991 102.938 224.764 102.938 222.469Z" fill="#089D23"/>
<path d="M254.813 203.625C255.054 213.104 254.295 222.552 252.868 231.918C252.607 233.641 252.405 235.356 252.281 237.094C252.243 237.617 252.243 237.617 252.204 238.151C252.143 240.198 252.358 241.819 252.984 243.756C254.097 247.219 253.916 249.817 252.281 253.125C251.138 255.314 249.714 256.991 247.957 258.715C247.729 258.948 247.5 259.18 247.265 259.42C244.26 262.406 244.26 262.406 242.438 262.406C242.191 261.703 242.191 261.703 242.156 260.719C242.527 260.131 242.942 259.635 243.41 259.121C244.427 257.592 244.488 255.755 244.461 253.969C244.46 253.665 244.46 253.665 244.459 253.354C244.456 252.715 244.449 252.076 244.441 251.437C244.439 251.001 244.436 250.564 244.434 250.127C244.428 249.064 244.418 248.001 244.406 246.937C243.619 246.544 243.027 246.585 242.156 246.656C241.366 247.201 241.22 247.712 241.031 248.625C240.968 249.629 240.921 250.632 240.886 251.638C240.831 252.81 240.714 253.74 240.188 254.812C239.238 254.848 239.238 254.848 238.219 254.812C237.656 254.25 237.656 254.25 237.582 253.726C237.593 251.862 237.717 250.007 237.867 248.15C237.893 247.775 237.893 247.775 237.92 247.391C238.102 245.362 238.58 243.727 240.082 242.297C240.77 241.573 240.843 241.393 241.014 240.469C241.192 239.545 241.407 239.16 242.156 238.588C243.066 237.886 243.233 237.597 243.563 236.531C243.643 235.832 243.643 235.832 243.627 235.102C243.627 234.688 243.627 234.688 243.626 234.264C243.623 233.968 243.619 233.672 243.615 233.366C243.613 233.055 243.611 232.744 243.609 232.423C243.58 229.407 243.46 226.396 243.322 223.384C243.123 218.98 242.937 214.572 242.9 210.163C242.896 209.757 242.891 209.351 242.883 208.945C242.873 208.394 242.871 207.843 242.87 207.291C242.868 206.988 242.866 206.684 242.863 206.372C243.04 205.368 243.296 205.055 244.125 204.469C244.992 204.264 244.992 204.264 246.001 204.174C246.552 204.123 246.552 204.123 247.113 204.07C247.5 204.039 247.887 204.008 248.273 203.977C248.656 203.941 249.038 203.906 249.42 203.87C251.223 203.709 253.003 203.579 254.813 203.625Z" fill="#EEC41A"/>
<path d="M155.971 207.07C156.52 207.276 157.069 207.481 157.619 207.685C158.731 208.099 159.842 208.514 160.952 208.931C163.092 209.732 165.242 210.503 167.396 211.264C167.999 211.478 168.602 211.694 169.204 211.91C169.571 212.039 169.937 212.169 170.303 212.299C170.616 212.41 170.929 212.521 171.252 212.636C175.533 213.961 179.695 213.038 183.586 211.025C185.199 210.155 186.544 209.123 187.861 207.838C188.4 207.317 188.953 206.873 189.562 206.438C190.969 208.406 190.969 208.406 190.969 217.688C161.733 217.688 132.497 217.688 102.375 217.688C102.989 217.074 103.316 216.96 104.132 216.709C104.379 216.632 104.626 216.555 104.88 216.475C105.148 216.394 105.416 216.312 105.692 216.229C105.967 216.143 106.243 216.058 106.526 215.97C107.41 215.697 108.294 215.427 109.178 215.156C109.768 214.974 110.359 214.792 110.949 214.609C118.624 212.241 118.624 212.241 122.462 213.768C126.36 215.185 130.877 214.184 134.525 212.484C138.252 210.675 141.714 208.356 145.176 206.094C148.824 203.795 152.296 205.666 155.971 207.07Z" fill="#E8E6DC"/>
<path d="M126.108 197.815C126.258 197.876 126.408 197.937 126.562 198C126.343 199.191 125.836 199.53 124.875 200.25C124.426 201.147 124.488 202.086 124.594 203.063C124.846 203.667 124.846 203.667 125.438 203.906C126.539 204.014 127.377 203.914 128.446 203.623C129.676 203.307 130.827 203.271 132.091 203.289C132.312 203.29 132.534 203.29 132.762 203.291C133.461 203.294 134.16 203.301 134.859 203.309C135.337 203.311 135.814 203.314 136.292 203.316C137.455 203.322 138.618 203.332 139.781 203.344C137.625 205.558 134.881 206.849 132.082 208.09C131.902 208.17 131.721 208.251 131.536 208.334C128.225 209.755 125.483 209.742 122.062 208.688C121.732 208.531 121.401 208.374 121.061 208.213C118.541 207.251 116.023 208.005 113.555 208.793C113.211 208.899 112.867 209.006 112.513 209.115C107.77 210.589 103.056 212.161 98.34 213.716C98.009 213.825 97.678 213.934 97.337 214.046C96.7111 214.253 96.0853 214.459 95.4597 214.667C91.5275 215.964 87.668 216.951 83.7477 215.048C81.3873 213.673 79.3403 211.947 77.3438 210.094C79.2392 207.737 81.5389 205.811 83.8147 203.833C84.8521 202.928 85.8784 202.01 86.9062 201.094C87.0759 201.192 87.2456 201.29 87.4204 201.392C87.6452 201.52 87.87 201.647 88.1016 201.779C88.3234 201.907 88.5453 202.034 88.7739 202.165C91.8946 203.741 96.0864 202.547 99.3505 201.988C100.724 201.753 102.099 201.528 103.475 201.304C103.88 201.238 103.88 201.238 104.293 201.17C106.802 200.768 109.312 200.467 111.844 200.243C114.53 199.991 116.914 199.426 119.268 198.088C121.724 196.781 123.539 196.856 126.108 197.815Z" fill="#EEC41A"/>
<path d="M223.594 116.437C223.829 116.605 224.064 116.773 224.307 116.946C227.617 119.427 230.224 122.969 230.906 127.125C230.966 128.064 230.96 128.997 230.941 129.937C230.939 130.182 230.936 130.427 230.934 130.679C230.927 131.276 230.917 131.872 230.906 132.469C230.732 132.431 230.557 132.394 230.378 132.356C228.117 131.905 225.892 131.743 223.594 131.625C223.566 131.463 223.537 131.302 223.508 131.135C223.377 130.395 223.239 129.657 223.102 128.918C223.057 128.664 223.013 128.41 222.968 128.148C222.676 126.61 222.347 125.526 221.344 124.312C220.303 123.619 219.458 123.524 218.25 123.75C217.971 123.963 217.692 124.176 217.404 124.395C216.043 125.419 214.495 125.772 212.871 126.211C212.57 126.296 212.269 126.381 211.958 126.469C206.839 127.904 201.843 127.59 197.121 124.945C196.86 124.771 196.86 124.771 196.594 124.594C197.046 121.382 199.703 118.941 202.156 117.072C208.335 112.508 217.189 111.608 223.594 116.437Z" fill="#089D23"/>
<path d="M154.302 165.918C155.972 165.921 157.641 165.922 159.311 165.924C162.551 165.927 165.791 165.932 169.031 165.938C169.031 168.443 169.031 170.949 169.031 173.531C155.573 173.531 142.116 173.531 128.25 173.531C128.25 171.118 128.25 168.705 128.25 166.219C136.936 165.961 145.613 165.901 154.302 165.918Z" fill="#EFC61A"/>
<path d="M30.0585 187.383C31.1435 187.643 31.5802 187.966 32.2323 188.861C34.2753 192.509 34.136 198.116 34.6464 202.219C34.6721 202.423 34.6978 202.628 34.7242 202.838C35.8293 211.709 35.9018 220.516 35.759 229.445C35.611 236.404 35.611 236.404 36.5624 243.281C36.6664 243.795 36.6664 243.795 36.7725 244.319C36.9608 245.215 37.1693 246.102 37.3886 246.99C37.4895 247.423 37.4895 247.423 37.5924 247.865C37.9716 249.431 38.4358 250.87 39.1317 252.324C39.3749 252.844 39.3749 252.844 39.6562 253.688C39.9346 253.78 40.2131 253.873 40.4999 253.969C40.2187 254.531 40.2187 254.531 39.6738 254.848C38.4597 255.195 37.2546 255.238 35.9999 255.094C35.1562 254.531 35.1562 254.531 34.9668 253.877C34.9093 253.47 34.9093 253.47 34.8507 253.055C34.7848 252.598 34.7848 252.598 34.7176 252.131C34.5097 250.495 34.3154 248.858 34.1378 247.218C34.0965 246.843 34.0552 246.469 34.0138 246.095C33.9056 245.115 33.7985 244.134 33.6916 243.153C33.5855 242.182 33.4785 241.21 33.3715 240.239C33.2448 239.089 33.1184 237.939 32.9928 236.789C32.7945 234.973 32.594 233.158 32.3873 231.343C32.0194 228.107 31.6805 224.877 31.4535 221.628C31.1159 216.875 30.5662 212.155 29.9812 207.427C29.3871 202.62 28.8716 197.817 28.483 192.989C28.4316 192.39 28.3732 191.792 28.3079 191.195C28.278 190.918 28.2481 190.641 28.2172 190.356C28.189 190.115 28.1609 189.874 28.1318 189.625C28.1249 189 28.1249 189 28.5644 188.104C29.2499 187.594 29.2499 187.594 30.0585 187.383Z" fill="#079F23"/>
<path d="M215.156 246.937C218.882 250.864 217.51 261.811 217.773 267.122C217.867 269.018 217.967 270.91 218.122 272.803C218.247 274.366 218.311 275.92 218.32 277.488C218.326 277.733 218.332 277.978 218.338 278.23C218.339 278.464 218.341 278.699 218.342 278.941C218.346 279.253 218.346 279.253 218.35 279.571C218.222 280.282 217.965 280.525 217.406 280.969C216.82 281.152 216.82 281.152 216.176 281.232C215.859 281.28 215.859 281.28 215.537 281.328C214.533 281.21 214.161 280.858 213.469 280.125C213.221 279.262 213.193 278.402 213.154 277.508C213.138 277.243 213.121 276.978 213.104 276.705C213.05 275.828 213.006 274.95 212.962 274.073C212.927 273.46 212.891 272.847 212.855 272.235C212.761 270.619 212.675 269.003 212.59 267.386C212.52 266.077 212.445 264.769 212.369 263.461C212.277 261.889 212.189 260.317 212.101 258.744C212.085 258.449 212.068 258.154 212.051 257.849C211.961 256.229 211.879 254.609 211.812 252.987C211.792 252.529 211.77 252.071 211.745 251.613C211.714 251.021 211.692 250.43 211.674 249.838C211.66 249.518 211.647 249.198 211.633 248.868C211.781 248.062 211.781 248.062 212.456 247.407C213.526 246.721 213.925 246.527 215.156 246.937Z" fill="#003B15"/>
<path d="M176.344 195.469C177.428 195.921 178.163 196.621 179.016 197.42C179.314 197.698 179.613 197.976 179.912 198.254C180.142 198.469 180.142 198.469 180.376 198.688C181.138 199.4 181.904 200.106 182.672 200.812C182.942 201.062 183.211 201.311 183.489 201.568C184.089 202.103 184.691 202.595 185.344 203.062C184.052 205.947 180.756 207.197 178.031 208.406C173.474 209.738 168.168 206.894 163.969 205.312C163.969 205.22 163.969 205.127 163.969 205.031C164.274 205.024 164.579 205.017 164.894 205.009C165.3 204.993 165.707 204.977 166.113 204.961C166.314 204.957 166.514 204.953 166.721 204.949C168.157 204.883 169.026 204.582 170.156 203.625C170.867 202.669 170.83 201.623 170.895 200.461C170.916 200.106 170.937 199.75 170.958 199.384C170.972 199.113 170.986 198.842 171 198.562C171.325 198.446 171.65 198.33 171.984 198.211C174.528 197.33 174.528 197.33 176.344 195.469Z" fill="#EEC51A"/>
<path d="M209.009 35.6253C210.821 36.9255 211.557 38.4445 211.957 40.6054C212.071 41.7085 212.069 42.7666 212.063 43.875C210.305 43.8821 208.548 43.887 206.791 43.8904C206.193 43.8918 205.594 43.8937 204.996 43.8962C204.138 43.8996 203.28 43.9012 202.422 43.9024C202.018 43.9046 202.018 43.9046 201.606 43.9068C201.358 43.9068 201.111 43.9069 200.855 43.9069C200.527 43.9078 200.527 43.9078 200.191 43.9088C199.688 43.875 199.688 43.875 199.406 43.5937C199.156 41.4392 199.518 39.5357 200.8 37.7764C203.04 35.1475 205.745 33.7812 209.009 35.6253Z" fill="#089E23"/>
<path d="M223.031 157.5C223.238 159.549 223.104 160.89 221.838 162.548C219.492 165.286 216.502 167.968 212.829 168.574C211.136 168.669 209.558 168.25 208.125 167.344C206.777 165.927 205.594 163.72 205.594 161.719C205.84 161.725 206.087 161.731 206.341 161.737C207.272 161.756 208.202 161.77 209.133 161.781C209.533 161.786 209.933 161.794 210.333 161.804C213.867 161.888 216.732 161.275 219.797 159.451C220.042 159.308 220.042 159.308 220.291 159.163C221.014 158.736 222.211 157.5 223.031 157.5Z" fill="#EEC51A"/>
<path d="M41.0625 259.594C40.9943 259.945 40.9262 260.296 40.856 260.658C40.2287 263.911 39.638 267.167 39.0784 270.432C38.9128 271.396 38.7423 272.359 38.5642 273.321C38.1464 275.587 37.8333 277.822 37.6875 280.125C36.6666 280.125 35.6456 280.125 34.5938 280.125C34.7232 277.95 34.9497 275.826 35.2793 273.674C35.3165 273.431 35.3538 273.188 35.3921 272.937C35.5545 271.886 35.72 270.836 35.889 269.786C36.2097 267.71 36.3758 265.665 36.4171 263.567C36.4607 262.302 36.5627 261.408 37.4062 260.438C38.1456 260.116 38.1456 260.116 38.9707 259.928C39.2437 259.862 39.5167 259.796 39.798 259.729C40.5 259.594 40.5 259.594 41.0625 259.594Z" fill="#079E23"/>
<path d="M190.125 207.844C190.403 208.029 190.682 208.215 190.969 208.406C190.969 211.469 190.969 214.532 190.969 217.688C161.733 217.688 132.497 217.688 102.375 217.688C103.145 216.918 103.855 216.798 104.906 216.562C105.592 216.668 105.592 216.668 106.031 216.844C105.846 216.844 105.66 216.844 105.469 216.844C105.469 217.029 105.469 217.215 105.469 217.406C133.498 217.406 161.527 217.406 190.406 217.406C190.77 212.543 190.77 212.543 190.125 207.844Z" fill="#FBFAFB"/>
<path d="M131.906 178.312C132.469 178.875 132.469 178.875 132.537 179.406C132.536 179.619 132.535 179.832 132.534 180.052C132.533 180.29 132.532 180.528 132.532 180.773C132.528 181.023 132.525 181.272 132.521 181.529C132.521 181.769 132.521 182.009 132.521 182.256C132.513 183.495 132.458 184.715 132.335 185.948C132.131 188.01 132.088 190.077 132.029 192.146C132.017 192.552 132.005 192.958 131.992 193.364C131.963 194.347 131.934 195.33 131.906 196.312C131.329 195.447 131.273 195.282 131.279 194.307C131.279 194.067 131.28 193.827 131.28 193.579C131.284 193.315 131.287 193.051 131.291 192.779C131.293 192.503 131.295 192.227 131.297 191.942C131.325 189.256 131.394 186.57 131.467 183.885C131.475 183.566 131.475 183.566 131.483 183.241C131.499 182.631 131.517 182.021 131.536 181.412C131.546 181.058 131.557 180.705 131.567 180.34C131.614 179.615 131.694 179.003 131.906 178.312Z" fill="#DBC71A"/>
<path d="M234 203.344C234.128 203.541 234.255 203.738 234.387 203.941C235.265 204.903 236.191 205.404 237.334 206.008C237.938 206.438 237.938 206.438 238.114 206.932C238.235 207.66 238.252 208.346 238.251 209.084C238.251 209.388 238.251 209.692 238.251 210.006C238.249 210.332 238.248 210.658 238.246 210.995C238.246 211.33 238.245 211.666 238.245 212.011C238.243 213.083 238.24 214.155 238.236 215.227C238.235 215.953 238.234 216.68 238.232 217.406C238.229 219.188 238.225 220.969 238.219 222.75C238.126 222.75 238.033 222.75 237.938 222.75C237.93 222.433 237.923 222.116 237.916 221.789C237.889 220.589 237.861 219.39 237.833 218.191C237.821 217.676 237.809 217.161 237.798 216.646C237.765 215.164 237.725 213.683 237.677 212.201C237.657 211.524 237.645 210.847 237.632 210.169C237.62 209.765 237.606 209.361 237.593 208.957C237.584 208.606 237.575 208.256 237.567 207.895C237.324 206.763 236.921 206.44 235.986 205.787C235.734 205.655 235.482 205.522 235.223 205.386C234.562 205.031 234.562 205.031 234 204.188C234 203.909 234 203.631 234 203.344Z" fill="#09B226"/>
<path d="M131.981 203.289C132.204 203.29 132.427 203.29 132.657 203.291C133.368 203.294 134.078 203.301 134.789 203.309C135.272 203.311 135.754 203.314 136.237 203.316C137.418 203.322 138.6 203.332 139.781 203.344C139.41 203.715 139.039 204.086 138.656 204.469C138.471 204.376 138.285 204.283 138.094 204.187C137.376 204.143 136.665 204.115 135.947 204.098C135.736 204.093 135.524 204.087 135.306 204.081C134.63 204.062 133.954 204.046 133.277 204.029C132.819 204.017 132.361 204.005 131.903 203.992C130.779 203.962 129.655 203.934 128.531 203.906C129.613 203.186 130.732 203.272 131.981 203.289Z" fill="#F7DB1A"/>
<path d="M98.4375 219.094C98.3471 219.229 98.2567 219.364 98.1635 219.503C97.7459 220.539 97.7742 221.565 97.7585 222.666C97.7531 222.902 97.7477 223.138 97.742 223.38C97.7253 224.131 97.7122 224.882 97.6992 225.633C97.6885 226.143 97.6775 226.652 97.6663 227.162C97.6393 228.41 97.6156 229.658 97.5938 230.906C97.5009 230.906 97.4081 230.906 97.3125 230.906C97.3125 227.287 97.3125 223.667 97.3125 219.937C96.6628 219.937 96.0131 219.937 95.3438 219.937C96.2606 219.021 97.1998 218.681 98.4375 219.094Z" fill="#F8F5EE"/>
<path d="M205.594 161.719C210.188 161.858 210.188 161.858 214.875 162C213.826 162.525 213.506 162.633 212.407 162.627C212.025 162.627 212.025 162.627 211.634 162.626C211.237 162.621 211.237 162.621 210.832 162.615C210.57 162.615 210.307 162.615 210.037 162.615C208.713 162.606 207.457 162.553 206.156 162.281C206.063 162.467 205.971 162.652 205.875 162.844C205.782 162.472 205.689 162.101 205.594 161.719Z" fill="#ECD419"/>
<path d="M261 199.406C261.279 199.406 261.557 199.406 261.844 199.406C261.947 200.514 261.929 200.972 261.281 201.902C261.096 202.1 260.91 202.297 260.719 202.5C260.812 202.686 260.904 202.871 261 203.062C260.722 203.202 260.722 203.202 260.438 203.344C260.345 204.922 260.252 206.499 260.156 208.125C260.064 208.125 259.971 208.125 259.875 208.125C259.851 207.205 259.836 206.285 259.822 205.365C259.812 204.973 259.812 204.973 259.801 204.574C259.798 204.323 259.795 204.072 259.793 203.813C259.788 203.582 259.784 203.35 259.779 203.112C259.897 202.359 260.159 202.151 260.719 201.656C260.879 201.082 260.879 201.082 260.912 200.479C260.941 200.125 260.97 199.771 261 199.406Z" fill="#DDE2D5"/>
<path d="M126.844 178.312C127.122 178.405 127.401 178.498 127.687 178.594C127.687 180.543 127.687 182.492 127.687 184.5C126.955 183.035 126.808 182.146 126.826 180.527C126.827 180.315 126.829 180.103 126.83 179.885C126.833 179.361 126.838 178.837 126.844 178.312Z" fill="#1D502E"/>
<path d="M106.031 216.844C105.846 216.844 105.66 216.844 105.469 216.844C105.469 217.029 105.469 217.215 105.469 217.406C106.304 217.406 107.139 217.406 108 217.406C108 217.499 108 217.592 108 217.688C106.144 217.688 104.288 217.688 102.375 217.688C103.346 216.716 104.727 216.322 106.031 216.844Z" fill="#F3F5F1"/>
<path d="M257.906 246.656C257.999 246.656 258.092 246.656 258.187 246.656C258.291 250.491 258.291 250.491 257.625 252.281C257.325 251.307 257.315 250.414 257.326 249.398C257.33 248.944 257.33 248.944 257.334 248.48C257.337 248.249 257.34 248.019 257.344 247.781C257.529 247.781 257.715 247.781 257.906 247.781C257.906 247.41 257.906 247.039 257.906 246.656Z" fill="#07240D"/>
<path d="M234.562 139.781C234.655 139.781 234.748 139.781 234.844 139.781C234.937 141.698 234.912 143.134 234 144.844C233.619 144.083 233.834 143.706 234 142.875C233.994 142.544 233.988 142.214 233.982 141.873C233.999 140.959 234.08 140.535 234.562 139.781Z" fill="#082A10"/>
<path d="M43.0313 142.594C43.1241 142.594 43.2169 142.594 43.3125 142.594C43.4053 143.429 43.4981 144.264 43.5938 145.125C43.6866 145.125 43.7794 145.125 43.875 145.125C43.875 146.146 43.875 147.167 43.875 148.219C43.6894 148.312 43.5038 148.404 43.3125 148.5C43.0535 147.191 42.9969 145.927 43.0137 144.598C43.015 144.404 43.0162 144.21 43.0175 144.011C43.0208 143.539 43.0259 143.066 43.0313 142.594Z" fill="#04250D"/>
<path d="M38.1445 260.402C38.365 260.414 38.5854 260.426 38.8125 260.438C38.5863 260.664 38.36 260.89 38.127 261.123C37.2127 262.2 37.1585 263.284 37.125 264.656C37.0322 264.656 36.9394 264.656 36.8438 264.656C36.8286 264.059 36.8177 263.461 36.8086 262.863C36.8021 262.53 36.7955 262.198 36.7888 261.855C36.859 260.763 37.0279 260.456 38.1445 260.402Z" fill="#08AC25"/>
<path d="M26.1562 224.438C26.4347 224.438 26.7131 224.438 27 224.438C27.0928 225.737 27.1856 227.036 27.2812 228.375C27.0028 228.468 26.7244 228.561 26.4375 228.656C26.4375 227.821 26.4375 226.986 26.4375 226.125C26.3447 226.125 26.2519 226.125 26.1562 226.125C26.1562 225.568 26.1562 225.011 26.1562 224.438Z" fill="#D8DED5"/>
<path d="M154.688 206.438C156.305 206.402 156.305 206.402 156.938 206.719C156.938 206.904 156.938 207.09 156.938 207.281C157.587 207.467 158.237 207.652 158.906 207.844C158.813 208.029 158.721 208.215 158.625 208.406C158.021 208.186 157.417 207.963 156.814 207.738C156.478 207.614 156.142 207.49 155.796 207.363C154.969 207 154.969 207 154.688 206.438Z" fill="#0D2613"/>
<path d="M93.375 220.781C92.6733 221.483 92.3419 221.445 91.3711 221.52C91.1151 221.541 90.8592 221.562 90.5955 221.583C90.3007 221.604 90.3007 221.604 90 221.625C90 221.347 90 221.068 90 220.781C91.2186 220.52 92.1564 220.52 93.375 220.781Z" fill="#DCDED4"/>
<path d="M42.4688 191.812C42.8864 192.091 42.8864 192.091 43.3125 192.375C43.401 193.548 43.308 194.609 43.0312 195.75C42.9384 195.75 42.8456 195.75 42.75 195.75C42.6572 194.451 42.5644 193.151 42.4688 191.812Z" fill="#DDBE18"/>
<path d="M259.594 219.094C259.687 219.094 259.779 219.094 259.875 219.094C259.875 220.115 259.875 221.136 259.875 222.188C259.597 222.002 259.318 221.816 259.031 221.625C258.91 220.485 258.947 220.064 259.594 219.094Z" fill="#E0E1D8"/>
<path d="M98.4375 219.094C98.1591 219.465 97.8806 219.836 97.5938 220.219C97.5938 220.033 97.5938 219.847 97.5938 219.656C96.8512 219.749 96.1088 219.842 95.3438 219.937C96.2606 219.021 97.1998 218.681 98.4375 219.094Z" fill="#ECF0E8"/>
<path d="M250.77 203.871C250.99 203.883 251.21 203.894 251.438 203.906C251.53 204.185 251.623 204.463 251.719 204.75C251.069 204.843 250.419 204.936 249.75 205.031C249.657 204.846 249.564 204.66 249.469 204.469C250.031 203.906 250.031 203.906 250.77 203.871Z" fill="#E0C119"/>
<path d="M126.281 191.25C126.467 191.25 126.652 191.25 126.844 191.25C126.844 191.807 126.844 192.364 126.844 192.938C126.008 192.798 126.008 192.798 125.156 192.656C125.528 192.563 125.899 192.471 126.281 192.375C126.281 192.004 126.281 191.633 126.281 191.25Z" fill="#EBF0EA"/>
<path d="M38.25 187.312C38.3428 187.312 38.4356 187.312 38.5312 187.312C38.5464 187.723 38.5573 188.133 38.5664 188.543C38.5729 188.771 38.5795 189 38.5862 189.235C38.5312 189.844 38.5312 189.844 37.9688 190.406C37.8759 189.942 37.7831 189.478 37.6875 189C37.8731 189 38.0587 189 38.25 189C38.25 188.443 38.25 187.886 38.25 187.312Z" fill="#EDF2EB"/>
</svg>
