<svg width="261" height="261" viewBox="0 0 261 261" fill="none" xmlns="http://www.w3.org/2000/svg">
<path d="M61.6816 103.992H66.5244L70.6025 104.757L74.6807 106.541L77.7393 108.835L80.2881 111.384L82.582 114.952L84.1113 119.03L84.876 122.089V128.461L83.8564 132.539L82.582 135.598L80.543 138.656L77.9941 141.46L75.4453 143.244L71.877 145.028L69.3281 145.793L72.1318 148.597L74.6807 152.42L76.9746 156.243L79.5234 160.831L83.0918 167.458L85.6406 172.046L104.502 172.301L106.541 173.065L107.306 173.575L112.658 172.556H114.952L118.521 173.32L120.56 174.34L121.324 175.104V177.144L120.814 178.163L119.795 178.673H118.521L117.756 177.908L116.227 177.398H111.639L108.835 178.418L108.07 178.928V184.79L112.148 186.064L117.246 187.084H120.56L124.893 186.319L126.422 186.064V185.555L122.854 185.045L117.501 184.025L115.972 183.006L115.717 182.751V180.457L116.991 179.438H118.775L125.402 180.712L128.971 181.477L130.5 182.496L131.52 184.025V186.319L130.5 188.358L128.716 189.888L126.167 190.907L122.854 191.672H115.972L109.854 190.397L107.306 189.888L105.776 191.162L102.208 191.672L88.9541 192.691L82.8369 193.201H78.5039L75.9551 192.691L73.6611 191.672L72.3867 190.907L72.1318 191.162L71.877 194.221V200.338L77.4844 201.357L85.6406 202.887L91.5029 204.161L94.3066 204.926V196.26L94.8164 195.75H169.497L170.771 196.77L171.026 197.279V246.727L169.752 248.256H167.968L166.948 247.491H105.776L104.502 248.511L102.718 248.256L101.953 247.491H89.4639L88.1895 248.511L86.4053 248.256L85.3857 247.236L84.6211 243.413L82.582 228.63L82.3271 227.355L81.8174 227.101L76.4648 226.846L79.0137 241.119L79.7783 244.942V246.472L78.5039 248.001L77.9941 248.256H76.21L74.6807 246.981L73.6611 242.903L70.8574 227.61V226.846H40.2715L39.5068 232.453L37.9775 240.864L36.958 246.727L35.9385 248.001L35.4287 248.256H33.1348L31.8604 247.236L31.6055 246.727L31.8604 243.923L34.1543 230.669L34.9189 226.846L33.1348 226.591L31.8604 225.571L31.0957 224.042L29.8213 212.317L27.2725 187.339L25.7432 173.575L24.9785 165.929V161.086L25.998 159.557L27.0176 158.792L29.3115 158.537L31.3506 159.557L32.3701 161.086L32.625 161.851L33.8994 173.83L34.6641 182.241L35.4287 188.613L36.958 170.517L38.2324 161.596L39.252 157.008L40.5264 153.185L42.0557 150.126L44.0947 147.577L46.1338 145.538L48.9375 143.754L51.7412 142.479L50.4668 141.205L47.6631 138.401L45.8789 135.598L44.6045 133.049L43.3301 128.206V122.344L44.3496 118.011L45.8789 114.442L48.1729 111.129L50.4668 108.835L53.0156 107.051L56.584 105.267L60.1523 104.247L61.6816 103.992Z" fill="#03420E"/>
<path d="M188.613 103.482H193.201L197.024 104.247L200.338 105.521L202.887 107.051L205.436 109.345L207.22 111.384L209.259 115.462L210.023 118.521V126.167L208.749 131.01L206.71 135.088L204.671 137.892L204.416 138.401L204.926 140.695L207.22 141.46L215.886 145.028L219.964 147.067L222.768 148.852L225.826 151.91L227.61 154.714L229.395 158.537L230.924 163.89L232.198 170.517L233.473 179.692V182.751L232.453 183.771H231.434V189.633L230.414 200.848L228.63 212.062L228.885 215.376L229.14 217.67V222.768L228.375 227.101L226.846 231.179L224.807 235.002L223.022 237.041L221.493 238.061L221.238 246.472L220.474 247.746L219.964 248.256H217.67L216.905 247.491L196.515 247.236L196.26 248.001L195.75 248.256H193.456L192.691 247.491L178.928 247.236L178.418 248.256L176.634 248.511L175.359 247.746L175.104 247.491V228.12L175.614 215.886L176.124 212.572L174.85 212.317L174.34 211.808L174.085 209.514L173.32 191.927L173.065 183.516L170.007 186.064L165.929 188.868L161.851 190.907L160.066 191.417H156.753L153.949 190.652L150.381 188.868L145.538 185.555L142.225 183.006L136.872 178.928L132.284 175.614L129.735 173.32L126.167 169.752L124.128 168.987L117.501 167.713L115.462 166.438L114.697 165.419L114.442 164.654V161.851L115.462 159.812L117.756 157.772L120.56 156.498L122.344 155.988H127.696L131.774 157.263L135.853 159.302L139.421 161.596L145.793 165.164L153.949 169.497L156.498 170.771L157.008 169.242L159.557 166.438L161.341 164.399L163.635 161.851L165.929 159.302L168.987 155.733L171.791 152.675L174.085 150.126L176.889 147.832L179.947 146.048L178.928 145.283L176.889 143.754L175.359 141.46L174.595 139.166L173.83 135.343V134.323H171.536L170.262 133.049L170.007 131.774V129.99L172.046 125.657L173.32 119.795L173.83 117.246L172.046 115.972L171.791 115.462V113.168L173.065 111.129L175.104 109.09L178.673 106.796L181.731 105.267L185.81 103.992L188.613 103.482Z" fill="#03410E"/>
<path d="M98.3848 200.338H166.184L166.693 200.593V247.236H106.031L105.012 230.159L104.502 223.022L103.482 216.141L102.208 212.317L100.424 209.514L98.3848 207.475V200.338Z" fill="#119A22"/>
<path fill-rule="evenodd" clip-rule="evenodd" d="M176.889 28.8018H185.81L187.084 29.3115L188.104 30.5859L188.613 32.3701L189.123 34.9189L189.378 35.9385L190.907 36.1934L192.946 37.2129L194.221 36.958L197.279 35.1738L199.318 34.4092H202.887L204.926 36.1934L206.71 37.9775L207.22 38.9971V41.8008L206.2 44.0947L204.416 47.4082L203.906 48.1729L204.161 49.4473L205.69 51.9961L206.455 52.5059L210.023 53.2705L211.043 53.7803L211.808 55.0547V64.2305L210.788 66.0146L209.259 66.7793L205.69 67.2891L204.671 69.583L204.161 70.8574L204.416 72.6416L205.945 75.1904L206.2 75.9551V77.7393L204.926 80.0332L201.867 83.6016L200.593 84.876L199.318 85.3857L196.77 85.1309L193.456 83.0918L191.162 83.3467L189.123 84.1113L188.613 85.6406L188.104 88.4443L187.339 89.7188L186.319 90.4834L185.555 90.7383H177.908L176.379 90.2285L175.104 89.209L174.595 88.1895L174.085 84.3662L173.065 83.3467L172.301 82.8369L171.281 83.0918L169.497 85.1309L165.929 86.915H163.635L161.086 85.8955L158.537 84.1113L157.008 82.3271L155.988 80.2881L155.733 79.2686V75.7002L157.008 73.4062L158.537 71.6221L158.282 70.3477L157.008 67.5439V67.0342L153.949 66.7793L151.91 66.0146L150.891 64.7402L150.636 62.9561V56.0742L151.4 54.0352L152.93 53.0156L157.008 52.251L158.282 48.6826L158.537 47.918L156.753 45.1143L156.243 43.8398L156.498 41.5459L157.518 40.0166L160.576 37.2129L162.615 35.1738L163.125 34.9189H165.674L169.242 36.958L170.771 36.7031L173.575 35.6836H174.085L174.85 30.8408L175.869 29.3115L176.889 28.8018ZM190.397 59.3877H190.907V62.4463L190.143 64.7402L188.613 66.7793L186.574 68.5635L185.3 69.0732L184.28 68.8184L185.3 67.7988L185.555 67.0342L185.81 63.7207L189.633 59.8975L190.397 59.3877ZM182.241 49.957H178.928L177.144 50.4668L175.104 51.7412L172.811 54.0352L171.791 56.3291V58.623L172.811 57.8584L174.85 56.3291L178.163 56.0742L179.438 54.7998L182.496 51.4863L183.006 50.4668L182.241 49.957Z" fill="#02410E"/>
<path d="M204.161 144.773L205.69 145.283L212.572 148.342L215.631 149.616L219.199 151.655L221.748 153.694L223.532 156.243L225.316 160.576L226.591 165.164L227.865 171.536L228.375 176.379V179.692L223.277 180.457L216.141 181.222H213.847L213.337 178.673L212.572 169.242L212.062 166.948L211.553 166.438H209.259L208.494 166.948V171.026L209.769 183.516L210.278 185.3L212.572 185.81V191.162L212.062 209.259L210.533 209.769L207.22 210.023H191.417L180.202 209.004L178.673 208.494L178.418 208.239L177.653 189.633L177.144 167.203L176.379 166.438H174.085L173.575 166.948L173.32 167.968L173.065 177.908L171.791 178.928L170.517 178.673L168.478 176.889L164.654 173.065L162.87 171.026L162.105 170.262L162.615 169.242L165.674 165.929L167.968 163.38L170.517 160.576L172.811 157.772L173.83 156.498H174.34L174.85 155.479L177.398 152.93L180.457 150.636L182.496 149.616H183.261L185.3 155.224L187.339 159.302L187.594 160.066L189.633 160.321L190.907 159.557L192.691 157.518L196.26 153.949L198.044 151.91L201.612 148.087L204.161 144.773Z" fill="#119A23"/>
<path d="M56.584 145.793H59.6426L62.7012 146.812L66.0146 148.597L68.8184 151.4L71.3672 155.224L75.9551 163.89L79.7783 171.026L81.8174 174.85L83.0918 176.634L103.228 176.889L103.737 177.398V186.574L101.188 187.084L89.7188 188.104L83.0918 188.613H79.0137L76.7197 188.104L73.4062 186.319L70.8574 184.025L69.0732 182.241L65.7598 177.908L62.4463 173.32L59.1328 168.478L58.3682 167.968H56.8389L56.0742 168.223L55.8193 170.517L57.0938 172.811L60.6621 177.908L63.7207 182.241L67.0342 186.319L68.0537 187.339L67.5439 191.417L67.2891 201.357L64.9951 202.887L61.4268 204.416L56.584 205.69L52.5059 206.2H42.5654L40.0166 205.69L39.7617 204.416V193.456L40.5264 181.477L41.8008 168.478L42.8203 161.596L43.8398 157.008L45.1143 153.694L46.8984 150.891L49.7021 148.342L53.2705 146.558L56.584 145.793Z" fill="#EAC01C"/>
<path d="M176.889 16.8223H185.555L190.397 17.5869L195.75 19.1162L200.848 21.4102L204.926 23.959L208.239 26.5078L211.553 29.5664L214.356 32.8799L216.141 35.4287L218.689 39.7617L220.729 44.8594L222.003 49.4473L222.513 51.7412L222.768 54.0352V63.9756L221.748 69.3281L219.709 75.4453L217.415 80.2881L214.866 84.1113L212.827 86.6602L210.533 89.209L207.475 92.0127L203.396 94.8164L199.318 97.1104L194.985 98.8945L189.888 100.424L184.535 101.188H177.653L172.556 100.424L168.223 99.1494L163.125 97.1104L159.047 94.8164L155.479 92.2676L152.165 89.209L149.871 86.915L146.812 82.8369L144.264 78.5039L142.479 74.4258L141.205 70.6025L140.186 66.2695L139.676 61.6816V56.0742L140.44 50.4668L141.715 45.624L143.244 41.5459L145.793 36.7031L148.087 33.3896L150.891 30.0762L153.949 27.0176L158.282 23.7041L163.635 20.6455L168.732 18.6064L173.83 17.332L176.889 16.8223ZM178.418 21.665L173.575 22.4297L168.478 23.959L165.164 25.4883L161.851 27.2725L158.282 29.8213L154.459 33.3896L152.165 35.9385L149.616 39.7617L147.577 43.585L145.538 49.7021L144.773 54.29V63.4658L145.793 68.5635L147.067 72.6416L148.852 76.7197L151.655 81.3076L154.459 84.6211L157.518 87.6797L160.831 90.2285L164.654 92.5225L168.223 94.0518L173.575 95.5811L176.889 96.0908H185.81L190.652 95.0713L196.005 93.2871L200.338 90.9932L203.651 88.6992L206.965 85.8955L208.749 83.8564L211.298 80.7979L213.337 77.4844L215.376 73.4062L216.905 68.5635L217.415 66.5244L217.925 61.9365V55.5645L217.16 50.7217L215.886 45.8789L213.847 41.0361L212.317 38.4873L209.514 34.6641L205.945 30.8408L202.632 28.292L198.809 25.998L195.75 24.4688L190.397 22.6846L186.829 21.9199L184.79 21.665H178.418Z" fill="#03420E"/>
<path d="M69.8379 204.671L72.3867 204.926L86.915 207.475L91.7578 208.749L94.3066 209.769L97.1104 211.808L98.6396 214.356L99.6592 217.16L100.679 226.591L101.698 243.668V247.236H90.4834L89.7188 246.981L88.4443 237.296L86.915 227.101L86.1504 224.807L84.876 223.532L82.8369 222.513L80.543 222.258L50.9766 222.003L46.3887 220.729L43.8398 219.454L42.5654 218.435L41.291 216.141L40.2715 212.827V210.023L43.3301 210.278H53.0156L58.1133 209.514L63.2109 208.239L67.0342 206.455L69.583 204.926L69.8379 204.671Z" fill="#119B23"/>
<path d="M180.202 213.337H182.751L187.594 213.847L192.691 214.102H210.278L209.514 216.905L208.494 220.729L208.239 223.022V229.14L209.514 231.434L211.553 232.963L212.317 233.473L212.827 236.786L214.102 238.315L216.905 239.335V247.236H196.515L196.26 248.001L195.75 248.256H193.456L192.691 247.491L179.183 247.236V233.218L179.692 217.925L179.947 213.847L180.202 213.337Z" fill="#119B22"/>
<path d="M62.1914 108.835H66.2695L70.3477 109.854L73.1514 111.384L75.9551 113.678L77.7393 116.227L79.2686 119.285L80.0332 122.089L80.2881 124.383V127.441L79.2686 131.265L77.4844 134.833L75.1904 137.382L73.1514 139.166L70.0928 140.695L67.2891 141.46L65.7598 141.715H62.4463L58.3682 140.695L55.3096 139.166L52.251 136.617L50.2119 133.813L48.9375 131.265L47.918 127.441V122.854L48.6826 119.795L49.957 116.736L52.5059 113.423L55.3096 111.129L58.623 109.6L62.1914 108.835Z" fill="#EAC01C"/>
<path d="M177.653 119.795L179.183 120.05L183.261 121.069L185.81 121.834L187.084 122.854L188.868 126.167L189.888 126.677H191.417L192.691 125.402L193.966 124.383H195.75L197.024 125.402L197.534 126.422V128.461L196.26 130.5L194.476 132.284L194.221 132.794V134.323L195.495 135.598H197.279L198.809 135.088L199.828 137.637L200.848 141.205V142.734L197.789 146.303L193.966 150.381L191.672 152.93L189.888 154.714L189.123 153.949L187.849 150.381L187.339 147.832V146.303L189.378 145.283L189.633 144.773V142.989L188.358 141.715L186.064 141.97L184.535 142.225H182.496L180.457 141.205L179.183 139.421L177.653 132.794L177.144 131.01L174.595 130.245L175.104 128.716L176.379 125.402L177.653 119.795Z" fill="#E9C01C"/>
<path d="M225.062 184.28H227.101V190.652L226.081 200.338L224.552 210.533V215.121L224.807 217.925V223.277L223.787 227.355L222.258 230.924L220.219 233.728L218.18 235.002H216.65L216.396 234.747V232.963L218.435 225.826V223.532L217.67 222.258L217.16 222.003H215.631L214.866 223.022L213.592 228.63L213.337 229.14L212.317 228.63L212.062 228.12V223.277L213.082 218.435L214.611 214.356L215.886 211.043L216.141 208.239L216.65 188.358L216.905 185.3L223.022 184.535L225.062 184.28Z" fill="#E9C11C"/>
<path d="M178.418 33H184.79L185.555 37.8428L185.81 38.8623L189.888 40.3916L190.907 40.9014L190.397 42.6855L188.868 45.4893L186.829 47.0186L185.045 46.7637L182.496 46.2539H179.438L176.124 47.0186L173.065 48.5479L172.046 49.5674H171.536V50.0771H171.026L170.517 51.0967L168.987 53.1357L168.223 54.9199L167.968 56.1943V60.5273L168.223 62.5664L164.145 66.6445L162.105 68.4287L161.341 67.9189L160.066 64.3506L158.792 63.5859L154.714 62.8213V56.959L156.498 56.4492L159.812 55.6846L160.576 53.9004L161.851 50.5869L162.615 49.0576V47.0186L160.576 43.96L160.831 42.6855L163.635 39.8818L164.399 39.3721L165.674 39.627L168.732 41.4111H170.771L173.32 40.1367L177.144 38.8623L177.653 37.5879L178.163 33.7646L178.418 33Z" fill="#119C24"/>
<path d="M199.318 51.3516L200.593 51.6064L202.887 55.1748L203.906 55.9395L207.729 56.959L207.984 57.2139V62.5664L207.729 63.0762L205.181 63.5859L203.142 63.8408L202.122 65.1152L200.848 68.4287L199.828 70.7227L200.083 73.0166L201.867 76.3301V77.6045L199.063 80.918L198.299 81.1729L195.24 79.6436L193.966 78.8789H191.927L188.358 80.4082L186.319 81.1729L185.3 83.2119L184.28 86.7803H178.673L178.163 85.7607L177.653 82.7021L176.889 81.1729L174.595 79.6436L174.85 78.624L177.144 76.0752L178.418 74.0361L179.947 73.7812H182.496L186.064 73.0166L189.123 71.4873L191.672 69.1934L193.201 67.1543L194.476 64.3506L194.73 63.5859V57.9785L194.221 55.4297L196.77 52.8809L199.318 51.3516Z" fill="#119C23"/>
<path d="M123.108 160.321H125.912L128.461 160.831L131.52 162.105L135.343 164.399L139.676 166.948L148.342 171.536L154.204 174.595L155.988 175.869H158.282L159.302 174.595L159.812 173.83L160.576 174.085L162.36 176.124L165.164 179.183L166.948 180.967L167.458 181.731L167.203 182.751L163.635 185.3L161.086 186.574L160.066 186.829H156.753L153.694 185.555L147.832 181.731L142.479 177.653L137.382 173.83L133.049 170.517L128.716 166.184L125.657 164.909L119.54 163.635L119.03 163.38L119.285 162.105L121.324 160.831L123.108 160.321Z" fill="#EAC11C"/>
<path d="M188.104 108.07H193.711L196.77 108.835L200.083 110.619L202.632 112.913L204.416 115.717L205.436 119.03V124.893L204.926 127.696L203.651 131.265L202.377 133.559L201.103 132.284L201.357 130.245L201.612 129.226V125.912L200.593 123.618L199.318 121.834L197.279 120.56L196.26 120.305H193.456L191.672 121.069H190.652L189.378 119.285L186.829 117.756L185.045 117.246L182.241 116.736L178.418 115.462L176.634 114.442L177.144 113.423L179.183 111.639L182.751 109.6L186.574 108.325L188.104 108.07Z" fill="#119C23"/>
<path d="M175.869 60.4072L177.653 61.9365L180.712 65.25L181.222 66.2695L178.673 68.3086L177.144 69.583L174.34 73.1514L171.536 76.4648L169.242 79.0137L167.458 81.0527L165.929 82.3271L165.419 82.582L163.125 82.3271L160.576 80.0332L159.812 78.5039V76.7197L160.831 75.1904L167.458 68.5635L169.497 66.7793L172.811 63.7207L175.869 60.4072Z" fill="#EAC21C"/>
<path d="M200.083 38.4873H201.357L203.142 40.2715L202.887 41.5459L200.593 45.8789L198.554 47.4082L194.73 49.4473L192.182 51.7412L190.397 53.7803L187.339 57.0938L185.3 58.8779L183.516 60.6621L183.006 61.4268L181.986 60.917L180.967 59.6426L181.222 58.623L184.535 55.3096L186.319 53.2705L192.182 47.4082L194.221 43.3301L195.75 41.291L198.044 39.5068L200.083 38.4873Z" fill="#E9C41D"/>
<path d="M190.907 222.768L192.691 223.022L193.711 224.042L196.005 240.1L196.77 244.942V247.236L195.75 248.256H193.456L192.691 247.491L191.672 246.981L192.437 246.727L189.888 229.395L189.633 227.355V223.787L190.907 222.768Z" fill="#02420D"/>
<path d="M111.639 177.144H116.227L118.521 178.163V178.673L119.285 178.928H118.775V179.438L116.481 179.947L115.972 180.457V182.751L117.501 183.771L125.657 185.3L126.422 185.555V186.064L122.599 187.084L120.56 187.339H117.246L112.148 186.319L108.07 185.045L107.815 184.79V178.928L109.854 177.653L111.639 177.144Z" fill="#E9C31D"/>
</svg>
