<svg width="91" height="83" viewBox="0 0 91 83" fill="none" xmlns="http://www.w3.org/2000/svg">
<path d="M82.3245 57.6272V8.23246H8.23245V57.6272H82.3245ZM82.3245 0C84.5079 0 86.6019 0.867345 88.1458 2.41123C89.6896 3.95511 90.557 6.04907 90.557 8.23246V57.6272C90.557 59.8106 89.6896 61.9045 88.1458 63.4484C86.6019 64.9923 84.5079 65.8596 82.3245 65.8596H53.511V74.0921H61.7434V82.3245H28.8136V74.0921H37.046V65.8596H8.23245C3.66344 65.8596 0 62.155 0 57.6272V8.23246C0 3.66344 3.66344 0 8.23245 0H82.3245ZM16.4649 16.4649H53.511V37.046H16.4649V16.4649ZM57.6272 16.4649H74.0921V24.6974H57.6272V16.4649ZM74.0921 28.8136V49.3947H57.6272V28.8136H74.0921ZM16.4649 41.1623H32.9298V49.3947H16.4649V41.1623ZM37.046 41.1623H53.511V49.3947H37.046V41.1623Z" fill="white"/>
<rect x="15.5104" y="15.5104" width="38.1795" height="21.476" fill="#03C725"/>
<rect x="57.2693" y="28.6346" width="17.8966" height="21.476" fill="#F8D200"/>
<path fill-rule="evenodd" clip-rule="evenodd" d="M38.2165 24.7177L33.8177 23.6237C33.6353 23.5781 33.3618 23.6465 33.2023 23.7832L28.9858 28.0225C28.849 28.1593 28.6211 28.1593 28.4616 28.0225L28.1197 27.6579C27.9601 27.4983 27.9601 27.2704 28.1197 27.1336L32.8376 22.4157C32.9744 22.2789 33.2479 22.1878 33.453 22.2334L37.6011 23.2818C37.8063 23.3274 38.057 23.2362 38.1482 23.0539L39.0598 21.5496C39.1738 21.3673 39.1054 21.1393 38.9459 21.0482L37.9658 20.4556C37.8063 20.3644 37.8063 20.1821 37.9886 20.0909L41.6809 18.0396C41.8633 17.9485 42 18.0168 42 18.222L41.9316 22.4613C41.9316 22.6664 41.7721 22.7576 41.6125 22.6436L40.6325 22.051C40.4729 21.9599 40.245 22.0054 40.1311 22.1878L38.7635 24.4898C38.6496 24.6721 38.3989 24.7633 38.2165 24.7177Z" fill="white"/>
<path fill-rule="evenodd" clip-rule="evenodd" d="M34.1595 34.0624H32.4046C32.1994 34.0624 32.0399 33.9029 32.0399 33.6977V27.1108C32.0399 26.9057 32.1539 26.6094 32.2906 26.4727L33.5897 25.1735C33.7265 25.0368 34 24.9456 34.1823 24.9912C34.3647 25.0368 34.5242 25.2419 34.5242 25.447V33.6977C34.5242 33.9029 34.3647 34.0624 34.1595 34.0624ZM28.302 33.6977V29.9598C28.302 29.8466 28.4687 29.8445 28.6411 29.8423C28.7809 29.8406 28.9245 29.8388 28.9858 29.7775L30.5356 28.2504C30.6724 28.0909 30.7863 28.1365 30.7863 28.3416V33.6977C30.7863 33.9029 30.6268 34.0624 30.4217 34.0624H28.6667C28.4615 34.0624 28.302 33.9029 28.302 33.6977ZM39.5157 33.6977V26.0168C39.5157 25.8117 39.584 25.5154 39.698 25.3331L40.5641 23.8972C40.6553 23.7148 40.8832 23.6692 41.0655 23.7832L41.6809 24.1479C41.8632 24.239 42 24.4898 42 24.6949V33.6977C42 33.9029 41.8405 34.0624 41.6353 34.0624H39.8803C39.6752 34.0624 39.5157 33.9029 39.5157 33.6977ZM38.2621 26.3815V33.6977C38.2621 33.9029 38.1026 34.0624 37.8974 34.0624H36.1425C35.9373 34.0624 35.7778 33.9029 35.7778 33.6977V25.7661C35.7778 25.561 35.9373 25.447 36.1197 25.4926L37.8974 25.9257C38.1026 25.9712 38.2621 26.1764 38.2621 26.3815Z" fill="#F8D200"/>
</svg>
